  0
SECTION
  2
HEADER
  9
$ACADVER
  1
AC1024
  9
$ACADMAINTVER
 70
6
  9
$DWGCODEPAGE
  3
ANSI_1252
  9
$LASTSAVEDBY
  1
ezdxf
  9
$INSBASE
 10
0.0
 20
0.0
 30
0.0
  9
$EXTMIN
 10
1e+20
 20
1e+20
 30
1e+20
  9
$EXTMAX
 10
-1e+20
 20
-1e+20
 30
-1e+20
  9
$LIMMIN
 10
0.0
 20
0.0
  9
$LIMMAX
 10
420.0
 20
297.0
  9
$ORTHOMODE
 70
0
  9
$REGENMODE
 70
1
  9
$FILLMODE
 70
1
  9
$QTEXTMODE
 70
0
  9
$MIRRTEXT
 70
1
  9
$LTSCALE
 40
1.0
  9
$ATTMODE
 70
1
  9
$TEXTSIZE
 40
2.5
  9
$TRACEWID
 40
1.0
  9
$TEXTSTYLE
  7
Standard
  9
$CLAYER
  8
0
  9
$CELTYPE
  6
ByLayer
  9
$CECOLOR
 62
256
  9
$CELTSCALE
 40
1.0
  9
$DISPSILH
 70
0
  9
$DIMSCALE
 40
1.0
  9
$DIMASZ
 40
2.5
  9
$DIMEXO
 40
0.625
  9
$DIMDLI
 40
3.75
  9
$DIMRND
 40
0.0
  9
$DIMDLE
 40
0.0
  9
$DIMEXE
 40
1.25
  9
$DIMTP
 40
0.0
  9
$DIMTM
 40
0.0
  9
$DIMTXT
 40
2.5
  9
$DIMCEN
 40
2.5
  9
$DIMTSZ
 40
0.0
  9
$DIMTOL
 70
0
  9
$DIMLIM
 70
0
  9
$DIMTIH
 70
0
  9
$DIMTOH
 70
0
  9
$DIMSE1
 70
0
  9
$DIMSE2
 70
0
  9
$DIMTAD
 70
1
  9
$DIMZIN
 70
8
  9
$DIMBLK
  1

  9
$DIMASO
 70
1
  9
$DIMSHO
 70
1
  9
$DIMPOST
  1

  9
$DIMAPOST
  1

  9
$DIMALT
 70
0
  9
$DIMALTD
 70
3
  9
$DIMALTF
 40
0.03937007874
  9
$DIMLFAC
 40
1.0
  9
$DIMTOFL
 70
1
  9
$DIMTVP
 40
0.0
  9
$DIMTIX
 70
0
  9
$DIMSOXD
 70
0
  9
$DIMSAH
 70
0
  9
$DIMBLK1
  1

  9
$DIMBLK2
  1

  9
$DIMSTYLE
  2
ISO-25
  9
$DIMCLRD
 70
0
  9
$DIMCLRE
 70
0
  9
$DIMCLRT
 70
0
  9
$DIMTFAC
 40
1.0
  9
$DIMGAP
 40
0.625
  9
$DIMJUST
 70
0
  9
$DIMSD1
 70
0
  9
$DIMSD2
 70
0
  9
$DIMTOLJ
 70
0
  9
$DIMTZIN
 70
8
  9
$DIMALTZ
 70
0
  9
$DIMALTTZ
 70
0
  9
$DIMUPT
 70
0
  9
$DIMDEC
 70
2
  9
$DIMTDEC
 70
2
  9
$DIMALTU
 70
2
  9
$DIMALTTD
 70
3
  9
$DIMTXSTY
  7
Standard
  9
$DIMAUNIT
 70
0
  9
$DIMADEC
 70
0
  9
$DIMALTRND
 40
0.0
  9
$DIMAZIN
 70
0
  9
$DIMDSEP
 70
44
  9
$DIMATFIT
 70
3
  9
$DIMFRAC
 70
0
  9
$DIMLDRBLK
  1

  9
$DIMLUNIT
 70
2
  9
$DIMLWD
 70
-2
  9
$DIMLWE
 70
-2
  9
$DIMTMOVE
 70
0
  9
$DIMFXL
 40
1.0
  9
$DIMFXLON
 70
0
  9
$DIMJOGANG
 40
0.785398163397
  9
$DIMTFILL
 70
0
  9
$DIMTFILLCLR
 70
0
  9
$DIMARCSYM
 70
0
  9
$DIMLTYPE
  6

  9
$DIMLTEX1
  6

  9
$DIMLTEX2
  6

  9
$DIMTXTDIRECTION
 70
0
  9
$LUNITS
 70
2
  9
$LUPREC
 70
4
  9
$SKETCHINC
 40
1.0
  9
$FILLETRAD
 40
10.0
  9
$AUNITS
 70
0
  9
$AUPREC
 70
2
  9
$MENU
  1
.
  9
$ELEVATION
 40
0.0
  9
$PELEVATION
 40
0.0
  9
$THICKNESS
 40
0.0
  9
$LIMCHECK
 70
0
  9
$CHAMFERA
 40
0.0
  9
$CHAMFERB
 40
0.0
  9
$CHAMFERC
 40
0.0
  9
$CHAMFERD
 40
0.0
  9
$SKPOLY
 70
0
  9
$TDCREATE
 40
2461207.8954976853
  9
$TDUCREATE
 40
2458532.153996898
  9
$TDUPDATE
 40
2461207.8955092593
  9
$TDUUPDATE
 40
2458532.1544311
  9
$TDINDWG
 40
0.0
  9
$TDUSRTIMER
 40
0.0
  9
$USRTIMER
 70
1
  9
$ANGBASE
 50
0.0
  9
$ANGDIR
 70
0
  9
$PDMODE
 70
0
  9
$PDSIZE
 40
0.0
  9
$PLINEWID
 40
0.0
  9
$SPLFRAME
 70
0
  9
$SPLINETYPE
 70
6
  9
$SPLINESEGS
 70
8
  9
$HANDSEED
  5
61
  9
$SURFTAB1
 70
6
  9
$SURFTAB2
 70
6
  9
$SURFTYPE
 70
6
  9
$SURFU
 70
6
  9
$SURFV
 70
6
  9
$UCSBASE
  2

  9
$UCSNAME
  2

  9
$UCSORG
 10
0.0
 20
0.0
 30
0.0
  9
$UCSXDIR
 10
1.0
 20
0.0
 30
0.0
  9
$UCSYDIR
 10
0.0
 20
1.0
 30
0.0
  9
$UCSORTHOREF
  2

  9
$UCSORTHOVIEW
 70
0
  9
$UCSORGTOP
 10
0.0
 20
0.0
 30
0.0
  9
$UCSORGBOTTOM
 10
0.0
 20
0.0
 30
0.0
  9
$UCSORGLEFT
 10
0.0
 20
0.0
 30
0.0
  9
$UCSORGRIGHT
 10
0.0
 20
0.0
 30
0.0
  9
$UCSORGFRONT
 10
0.0
 20
0.0
 30
0.0
  9
$UCSORGBACK
 10
0.0
 20
0.0
 30
0.0
  9
$PUCSBASE
  2

  9
$PUCSNAME
  2

  9
$PUCSORG
 10
0.0
 20
0.0
 30
0.0
  9
$PUCSXDIR
 10
1.0
 20
0.0
 30
0.0
  9
$PUCSYDIR
 10
0.0
 20
1.0
 30
0.0
  9
$PUCSORTHOREF
  2

  9
$PUCSORTHOVIEW
 70
0
  9
$PUCSORGTOP
 10
0.0
 20
0.0
 30
0.0
  9
$PUCSORGBOTTOM
 10
0.0
 20
0.0
 30
0.0
  9
$PUCSORGLEFT
 10
0.0
 20
0.0
 30
0.0
  9
$PUCSORGRIGHT
 10
0.0
 20
0.0
 30
0.0
  9
$PUCSORGFRONT
 10
0.0
 20
0.0
 30
0.0
  9
$PUCSORGBACK
 10
0.0
 20
0.0
 30
0.0
  9
$USERI1
 70
0
  9
$USERI2
 70
0
  9
$USERI3
 70
0
  9
$USERI4
 70
0
  9
$USERI5
 70
0
  9
$USERR1
 40
0.0
  9
$USERR2
 40
0.0
  9
$USERR3
 40
0.0
  9
$USERR4
 40
0.0
  9
$USERR5
 40
0.0
  9
$WORLDVIEW
 70
1
  9
$SHADEDGE
 70
3
  9
$SHADEDIF
 70
70
  9
$TILEMODE
 70
1
  9
$MAXACTVP
 70
64
  9
$PINSBASE
 10
0.0
 20
0.0
 30
0.0
  9
$PLIMCHECK
 70
0
  9
$PEXTMIN
 10
1e+20
 20
1e+20
 30
1e+20
  9
$PEXTMAX
 10
-1e+20
 20
-1e+20
 30
-1e+20
  9
$PLIMMIN
 10
0.0
 20
0.0
  9
$PLIMMAX
 10
420.0
 20
297.0
  9
$UNITMODE
 70
0
  9
$VISRETAIN
 70
1
  9
$PLINEGEN
 70
0
  9
$PSLTSCALE
 70
1
  9
$TREEDEPTH
 70
3020
  9
$CMLSTYLE
  2
Standard
  9
$CMLJUST
 70
0
  9
$CMLSCALE
 40
20.0
  9
$PROXYGRAPHICS
 70
1
  9
$MEASUREMENT
 70
1
  9
$CELWEIGHT
370
-1
  9
$ENDCAPS
280
0
  9
$JOINSTYLE
280
0
  9
$LWDISPLAY
290
0
  9
$INSUNITS
 70
6
  9
$HYPERLINKBASE
  1

  9
$STYLESHEET
  1

  9
$XEDIT
290
1
  9
$CEPSNTYPE
380
0
  9
$PSTYLEMODE
290
1
  9
$FINGERPRINTGUID
  2
{95460114-5FE3-45D6-B336-865AA734FE57}
  9
$VERSIONGUID
  2
{76B97138-50A6-460E-B7F3-F2EE2BC03F36}
  9
$EXTNAMES
290
1
  9
$PSVPSCALE
 40
0.0
  9
$OLESTARTUP
290
0
  9
$SORTENTS
280
127
  9
$INDEXCTL
280
0
  9
$HIDETEXT
280
1
  9
$XCLIPFRAME
280
1
  9
$HALOGAP
280
0
  9
$OBSCOLOR
 70
257
  9
$OBSLTYPE
280
0
  9
$INTERSECTIONDISPLAY
280
0
  9
$INTERSECTIONCOLOR
 70
257
  9
$DIMASSOC
280
2
  9
$PROJECTNAME
  1

  9
$CAMERADISPLAY
290
0
  9
$LENSLENGTH
 40
50.0
  9
$CAMERAHEIGHT
 40
0.0
  9
$STEPSPERSEC
 40
24.0
  9
$STEPSIZE
 40
100.0
  9
$3DDWFPREC
 40
2.0
  9
$PSOLWIDTH
 40
0.005
  9
$PSOLHEIGHT
 40
0.08
  9
$LOFTANG1
 40
1.570796326795
  9
$LOFTANG2
 40
1.570796326795
  9
$LOFTMAG1
 40
0.0
  9
$LOFTMAG2
 40
0.0
  9
$LOFTPARAM
 70
7
  9
$LOFTNORMALS
280
1
  9
$LATITUDE
 40
37.795
  9
$LONGITUDE
 40
-122.394
  9
$NORTHDIRECTION
 40
0.0
  9
$TIMEZONE
 70
-8000
  9
$LIGHTGLYPHDISPLAY
280
1
  9
$TILEMODELIGHTSYNCH
280
1
  9
$CMATERIAL
347
20
  9
$SOLIDHIST
280
0
  9
$SHOWHIST
280
1
  9
$DWFFRAME
280
2
  9
$DGNFRAME
280
2
  9
$REALWORLDSCALE
290
1
  9
$INTERFERECOLOR
 62
256
  9
$CSHADOW
280
0
  9
$SHADOWPLANELOCATION
 40
0.0
  0
ENDSEC
  0
SECTION
  2
CLASSES
  0
CLASS
  1
ACDBDICTIONARYWDFLT
  2
AcDbDictionaryWithDefault
  3
ObjectDBX Classes
 90
0
 91
0
280
0
281
0
  0
CLASS
  1
SUN
  2
AcDbSun
  3
SCENEOE
 90
1153
 91
0
280
0
281
0
  0
CLASS
  1
VISUALSTYLE
  2
AcDbVisualStyle
  3
ObjectDBX Classes
 90
4095
 91
0
280
0
281
0
  0
CLASS
  1
MATERIAL
  2
AcDbMaterial
  3
ObjectDBX Classes
 90
1153
 91
0
280
0
281
0
  0
CLASS
  1
SCALE
  2
AcDbScale
  3
ObjectDBX Classes
 90
1153
 91
0
280
0
281
0
  0
CLASS
  1
TABLESTYLE
  2
AcDbTableStyle
  3
ObjectDBX Classes
 90
4095
 91
0
280
0
281
0
  0
CLASS
  1
MLEADERSTYLE
  2
AcDbMLeaderStyle
  3
ACDB_MLEADERSTYLE_CLASS
 90
4095
 91
0
280
0
281
0
  0
CLASS
  1
DICTIONARYVAR
  2
AcDbDictionaryVar
  3
ObjectDBX Classes
 90
0
 91
0
280
0
281
0
  0
CLASS
  1
CELLSTYLEMAP
  2
AcDbCellStyleMap
  3
ObjectDBX Classes
 90
1152
 91
0
280
0
281
0
  0
CLASS
  1
MENTALRAYRENDERSETTINGS
  2
AcDbMentalRayRenderSettings
  3
SCENEOE
 90
1024
 91
0
280
0
281
0
  0
CLASS
  1
ACDBDETAILVIEWSTYLE
  2
AcDbDetailViewStyle
  3
ObjectDBX Classes
 90
1025
 91
0
280
0
281
0
  0
CLASS
  1
ACDBSECTIONVIEWSTYLE
  2
AcDbSectionViewStyle
  3
ObjectDBX Classes
 90
1025
 91
0
280
0
281
0
  0
CLASS
  1
RASTERVARIABLES
  2
AcDbRasterVariables
  3
ISM
 90
0
 91
0
280
0
281
0
  0
CLASS
  1
ACDBPLACEHOLDER
  2
AcDbPlaceHolder
  3
ObjectDBX Classes
 90
0
 91
0
280
0
281
0
  0
CLASS
  1
LAYOUT
  2
AcDbLayout
  3
ObjectDBX Classes
 90
0
 91
0
280
0
281
0
  0
ENDSEC
  0
SECTION
  2
TABLES
  0
TABLE
  2
VPORT
  5
8
330
0
100
AcDbSymbolTable
 70
1
  0
VPORT
  5
23
330
8
100
AcDbSymbolTableRecord
100
AcDbViewportTableRecord
  2
*Active
 70
0
 10
0.0
 20
0.0
 11
1.0
 21
1.0
 12
0.0
 22
0.0
 13
0.0
 23
0.0
 14
0.5
 24
0.5
 15
0.5
 25
0.5
 16
0.0
 26
0.0
 36
1.0
 17
0.0
 27
0.0
 37
0.0
 40
1000.0
 41
1.34
 42
50.0
 43
0.0
 44
0.0
 50
0.0
 51
0.0
 71
0
 72
1000
 73
1
 74
3
 75
0
 76
0
 77
0
 78
0
281
0
 65
0
146
0.0
  0
ENDTAB
  0
TABLE
  2
LTYPE
  5
2
330
0
100
AcDbSymbolTable
 70
3
  0
LTYPE
  5
24
330
2
100
AcDbSymbolTableRecord
100
AcDbLinetypeTableRecord
  2
ByBlock
 70
0
  3

 72
65
 73
0
 40
0.0
  0
LTYPE
  5
25
330
2
100
AcDbSymbolTableRecord
100
AcDbLinetypeTableRecord
  2
ByLayer
 70
0
  3

 72
65
 73
0
 40
0.0
  0
LTYPE
  5
26
330
2
100
AcDbSymbolTableRecord
100
AcDbLinetypeTableRecord
  2
Continuous
 70
0
  3

 72
65
 73
0
 40
0.0
  0
ENDTAB
  0
TABLE
  2
LAYER
  5
1
330
0
100
AcDbSymbolTable
 70
5
  0
LAYER
  5
27
330
1
100
AcDbSymbolTableRecord
100
AcDbLayerTableRecord
  2
0
 70
0
 62
7
  6
Continuous
370
-3
390
13
347
21
  0
LAYER
  5
28
330
1
100
AcDbSymbolTableRecord
100
AcDbLayerTableRecord
  2
Defpoints
 70
0
 62
7
  6
Continuous
290
0
370
-3
390
13
347
21
  0
LAYER
  5
2F
330
1
100
AcDbSymbolTableRecord
100
AcDbLayerTableRecord
  2
CORTE
 70
0
 62
7
  6
Continuous
370
-3
390
13
347
21
  0
LAYER
  5
30
330
1
100
AcDbSymbolTableRecord
100
AcDbLayerTableRecord
  2
MARCADO
 70
0
 62
7
  6
Continuous
370
-3
390
13
347
21
  0
LAYER
  5
31
330
1
100
AcDbSymbolTableRecord
100
AcDbLayerTableRecord
  2
SHEETS
 70
0
 62
7
  6
Continuous
370
-3
390
13
347
21
  0
ENDTAB
  0
TABLE
  2
STYLE
  5
5
330
0
100
AcDbSymbolTable
 70
1
  0
STYLE
  5
29
330
5
100
AcDbSymbolTableRecord
100
AcDbTextStyleTableRecord
  2
Standard
 70
0
 40
0.0
 41
1.0
 50
0.0
 71
0
 42
2.5
  3
txt
  4

  0
ENDTAB
  0
TABLE
  2
VIEW
  5
7
330
0
100
AcDbSymbolTable
 70
0
  0
ENDTAB
  0
TABLE
  2
UCS
  5
6
330
0
100
AcDbSymbolTable
 70
0
  0
ENDTAB
  0
TABLE
  2
APPID
  5
3
330
0
100
AcDbSymbolTable
 70
3
  0
APPID
  5
2A
330
3
100
AcDbSymbolTableRecord
100
AcDbRegAppTableRecord
  2
ACAD
 70
0
  0
APPID
  5
5E
330
3
100
AcDbSymbolTableRecord
100
AcDbRegAppTableRecord
  2
HATCHBACKGROUNDCOLOR
 70
0
  0
APPID
  5
5F
330
3
100
AcDbSymbolTableRecord
100
AcDbRegAppTableRecord
  2
EZDXF
 70
0
  0
ENDTAB
  0
TABLE
  2
DIMSTYLE
  5
4
330
0
100
AcDbSymbolTable
 70
1
100
AcDbDimStyleTable
  0
DIMSTYLE
105
2B
330
4
100
AcDbSymbolTableRecord
100
AcDbDimStyleTableRecord
  2
Standard
 70
0
 40
1.0
 41
2.5
 42
0.625
 43
3.75
 44
1.25
 45
0.0
 46
0.0
 47
0.0
 48
0.0
 49
2.5
140
2.5
141
2.5
142
0.0
143
0.03937007874
144
1.0
145
0.0
146
1.0
147
0.625
148
0.0
 69
0
 70
0
 71
0
 72
0
 73
0
 74
0
 75
0
 76
0
 77
1
 78
8
 79
3
170
0
171
3
172
1
173
0
174
0
175
0
176
0
177
0
178
0
179
2
271
2
272
2
273
2
274
3
275
0
276
0
277
2
278
44
279
0
280
0
281
0
282
0
283
0
284
8
285
0
286
0
288
0
289
3
290
0
371
-2
372
-2
  0
ENDTAB
  0
TABLE
  2
BLOCK_RECORD
  5
9
330
0
100
AcDbSymbolTable
 70
2
  0
BLOCK_RECORD
  5
17
330
9
100
AcDbSymbolTableRecord
100
AcDbBlockTableRecord
  2
*Model_Space
340
1A
 70
0
280
1
281
0
  0
BLOCK_RECORD
  5
1B
330
9
100
AcDbSymbolTableRecord
100
AcDbBlockTableRecord
  2
*Paper_Space
340
1E
 70
0
280
1
281
0
  0
ENDTAB
  0
ENDSEC
  0
SECTION
  2
BLOCKS
  0
BLOCK
  5
18
330
17
100
AcDbEntity
  8
0
100
AcDbBlockBegin
  2
*Model_Space
 70
0
 10
0.0
 20
0.0
 30
0.0
  3
*Model_Space
  1

  0
ENDBLK
  5
19
330
17
100
AcDbEntity
  8
0
100
AcDbBlockEnd
  0
BLOCK
  5
1C
330
1B
100
AcDbEntity
  8
0
100
AcDbBlockBegin
  2
*Paper_Space
 70
0
 10
0.0
 20
0.0
 30
0.0
  3
*Paper_Space
  1

  0
ENDBLK
  5
1D
330
1B
100
AcDbEntity
  8
0
100
AcDbBlockEnd
  0
ENDSEC
  0
SECTION
  2
ENTITIES
  0
LWPOLYLINE
  5
32
330
17
100
AcDbEntity
  8
SHEETS
100
AcDbPolyline
 90
4
 70
1
 10
0.0
 20
0.0
 10
700.0
 20
0.0
 10
700.0
 20
700.0
 10
0.0
 20
700.0
  0
LWPOLYLINE
  5
33
330
17
100
AcDbEntity
  8
CORTE
100
AcDbPolyline
 90
34
 70
1
 10
95.00000517673016
 20
5.000053290862979
 10
19.250007285046195
 20
5.000092013116046
 10
19.24977725068129
 20
9.124118394515108
 10
5.00001241190148
 20
9.124125678772089
 10
5.0
 20
444.8749116281125
 10
19.24999999999727
 20
444.87490434372376
 10
19.250002108849912
 20
449.00036805333104
 10
95.00000210887538
 20
449.0003680535374
 10
94.99999999996726
 20
444.87486562147103
 10
109.24999999996726
 20
444.87485833708365
 10
109.25000210886537
 20
449.0004067758474
 10
184.99954204100231
 20
449.00036805380046
 10
184.9995399320569
 20
444.8748196150656
 10
199.249539932056
 20
444.87481233067786
 10
199.24954204098958
 20
449.00036805384946
 10
275.0000021089054
 20
449.0003680540549
 10
274.99999999996
 20
444.87477360815876
 10
279.1249999999527
 20
444.87477149951894
 10
279.12496127767554
 20
369.1247714995343
 10
274.999961277681
 20
369.1247736081741
 10
274.999953993276
 20
354.87477360818764
 10
279.1249539932696
 20
354.87477149954816
 10
279.12491527099337
 20
279.12477149956726
 10
274.9999152709988
 20
279.1247736082071
 10
274.99990798664385
 20
264.87477360819173
 10
279.12490798663566
 20
264.87477149954816
 10
279.1248692642466
 20
189.12454146569394
 10
275.0000072847524
 20
189.12454357425304
 10
275.00000000035016
 20
174.8745435742651
 10
289.25000000035016
 20
174.874536289876
 10
289.24991316302294
 20
5.0
 10
109.25000728504892
 20
5.00009201324292
 10
95.00000728502164
 20
9.12435954687112
 10
95.00000517673016
 20
5.000053290862979
  0
LINE
  5
34
330
17
100
AcDbEntity
  8
MARCADO
100
AcDbLine
 10
107.93333260098643
 20
388.9998590101359
 30
0.0
 11
107.9333356681027
 21
394.99985901013144
 31
0.0
  0
LINE
  5
35
330
17
100
AcDbEntity
  8
MARCADO
100
AcDbLine
 10
107.9333356681027
 20
394.99985901013144
 30
0.0
 11
45.683335668091786
 21
394.99989083141566
 31
0.0
  0
LINE
  5
36
330
17
100
AcDbEntity
  8
MARCADO
100
AcDbLine
 10
45.683335668091786
 20
394.99989083141566
 30
0.0
 11
45.6833326009737
 21
388.99989083142134
 31
0.0
  0
LINE
  5
37
330
17
100
AcDbEntity
  8
MARCADO
100
AcDbLine
 10
45.6833326009737
 20
388.99989083142134
 30
0.0
 11
99.12497143747714
 21
388.99986351285406
 31
0.0
  0
LINE
  5
38
330
17
100
AcDbEntity
  8
MARCADO
100
AcDbLine
 10
99.12497143747714
 20
388.99986351285406
 30
0.0
 11
99.12491316238447
 21
274.99986351287225
 31
0.0
  0
LINE
  5
39
330
17
100
AcDbEntity
  8
MARCADO
100
AcDbLine
 10
99.12491316238447
 20
274.99986351287225
 30
0.0
 11
5.000004838710083
 21
274.9999116280944
 31
0.0
  0
LINE
  5
3A
330
17
100
AcDbEntity
  8
MARCADO
100
AcDbLine
 10
5.000005009623237
 20
268.99991162809056
 30
0.0
 11
195.12454204096048
 21
268.99981443929585
 31
0.0
  0
LINE
  5
3B
330
17
100
AcDbEntity
  8
MARCADO
100
AcDbLine
 10
195.12454204096048
 20
268.99981443929585
 30
0.0
 11
195.12460338317032
 21
388.999814439273
 31
0.0
  0
LINE
  5
3C
330
17
100
AcDbEntity
  8
MARCADO
100
AcDbLine
 10
195.12460338317032
 20
388.999814439273
 30
0.0
 11
197.93296454667052
 21
388.9998130036721
 31
0.0
  0
LINE
  5
3D
330
17
100
AcDbEntity
  8
MARCADO
100
AcDbLine
 10
197.93296454667052
 20
388.9998130036721
 30
0.0
 11
197.93296761378951
 21
394.99981300366767
 31
0.0
  0
LINE
  5
3E
330
17
100
AcDbEntity
  8
MARCADO
100
AcDbLine
 10
197.93296761378951
 20
394.99981300366767
 30
0.0
 11
135.68333566810725
 21
394.99984482474156
 31
0.0
  0
LINE
  5
3F
330
17
100
AcDbEntity
  8
MARCADO
100
AcDbLine
 10
135.68333566810725
 20
394.99984482474156
 30
0.0
 11
135.6833326009928
 21
388.9998448247462
 31
0.0
  0
LINE
  5
40
330
17
100
AcDbEntity
  8
MARCADO
100
AcDbLine
 10
135.6833326009928
 20
388.9998448247462
 30
0.0
 11
189.12460338316396
 21
388.9998175063903
 31
0.0
  0
LINE
  5
41
330
17
100
AcDbEntity
  8
MARCADO
100
AcDbLine
 10
189.12460338316396
 20
388.9998175063903
 30
0.0
 11
189.12454510806674
 21
274.99981750640575
 31
0.0
  0
LINE
  5
42
330
17
100
AcDbEntity
  8
MARCADO
100
AcDbLine
 10
189.12454510806674
 20
274.99981750640575
 30
0.0
 11
105.12491316239266
 21
274.9998604457553
 31
0.0
  0
LINE
  5
43
330
17
100
AcDbEntity
  8
MARCADO
100
AcDbLine
 10
105.12491316239266
 20
274.9998604457553
 30
0.0
 11
105.12497143748715
 21
388.9998604457396
 31
0.0
  0
LINE
  5
44
330
17
100
AcDbEntity
  8
MARCADO
100
AcDbLine
 10
105.12497143748715
 20
388.9998604457396
 30
0.0
 11
107.93333260098643
 21
388.9998590101359
 31
0.0
  0
LINE
  5
45
330
17
100
AcDbEntity
  8
MARCADO
100
AcDbLine
 10
279.1249745045834
 20
394.9997714995344
 30
0.0
 11
225.68296761379224
 21
394.99979881827767
 31
0.0
  0
LINE
  5
46
330
17
100
AcDbEntity
  8
MARCADO
100
AcDbLine
 10
225.68296761379224
 20
394.99979881827767
 30
0.0
 11
225.6829645466787
 21
388.99979881828233
 31
0.0
  0
LINE
  5
47
330
17
100
AcDbEntity
  8
MARCADO
100
AcDbLine
 10
225.6829645466787
 20
388.99979881828233
 30
0.0
 11
279.1249714374644
 21
388.9997714995361
 31
0.0
  0
LINE
  5
48
330
17
100
AcDbEntity
  8
MARCADO
100
AcDbLine
 10
5.00000159154024
 20
388.999911628106
 30
0.0
 11
17.933332601019174
 21
388.99990501677996
 31
0.0
  0
LINE
  5
49
330
17
100
AcDbEntity
  8
MARCADO
100
AcDbLine
 10
17.933332601019174
 20
388.99990501677996
 30
0.0
 11
17.9333356680836
 21
394.99990501680634
 31
0.0
  0
LINE
  5
4A
330
17
100
AcDbEntity
  8
MARCADO
100
AcDbLine
 10
17.9333356680836
 20
394.99990501680634
 30
0.0
 11
5.000001420637091
 21
394.9999116281132
 31
0.0
  0
LWPOLYLINE
  5
4B
330
17
100
AcDbEntity
  8
CORTE
100
AcDbPolyline
 90
1435
 70
1
 10
25.341191948919004
 20
548.1248766884519
 10
26.140638626046893
 20
548.1949589705046
 10
26.248989439525758
 20
548.1040738715146
 10
27.344786958105942
 20
548.2001353012092
 10
27.453137771585716
 20
548.1092502022211
 10
28.449317333929685
 20
548.1965787746713
 10
28.55766814740946
 20
548.1056936756804
 10
29.553847709755246
 20
548.1930222481305
 10
29.66219852323502
 20
548.1021371491424
 10
30.757996041813385
 20
548.198198578837
 10
30.86634685529225
 20
548.1073134798471
 10
31.862526417638037
 20
548.1946420522963
 10
31.97087723111781
 20
548.1037569533073
 10
33.066674749697995
 20
548.1998183830028
 10
33.17502556317686
 20
548.1089332840129
 10
34.17120512552083
 20
548.196261856463
 10
34.2795559390006
 20
548.1053767574731
 10
35.375353457581696
 20
548.2014381871686
 10
35.48370427106056
 20
548.1105530881787
 10
36.47988383340453
 20
548.1978816606288
 10
36.5882346468843
 20
548.1069965616398
 10
37.58441420922918
 20
548.194325134089
 10
37.692765022708954
 20
548.1034400350991
 10
38.78856254128914
 20
548.1995014647946
 10
38.89691335476891
 20
548.1086163658056
 10
39.89309291711197
 20
548.1959449382557
 10
40.001443730591745
 20
548.1050598392649
 10
41.09724124917284
 20
548.2011212689604
 10
41.20559206265261
 20
548.1102361699714
 10
42.20177162499658
 20
548.1975647424215
 10
42.310122438475446
 20
548.1066796434316
 10
43.40591995705563
 20
548.2027410731262
 10
43.514270770534495
 20
548.1118559741371
 10
44.51045033288119
 20
548.1991845465873
 10
44.618801146360056
 20
548.1082994475973
 10
45.614980708704024
 20
548.1956280200475
 10
45.7233315221838
 20
548.1047429210576
 10
46.81912904076398
 20
548.2008043507531
 10
46.92747985424376
 20
548.1099192517631
 10
47.923659416587725
 20
548.1972478242133
 10
48.0320102300675
 20
548.1063627252242
 10
49.127807748646774
 20
548.2024241549188
 10
49.23615856212655
 20
548.1115390559289
 10
50.232338124472335
 20
548.198867628379
 10
50.3406889379512
 20
548.1079825293891
 10
51.436486456529565
 20
548.2040439590837
 10
51.54483727000934
 20
548.1131588600947
 10
52.541016832355126
 20
548.2004874325448
 10
52.6493676458349
 20
548.1096023335549
 10
53.64554720817887
 20
548.196930906005
 10
53.75389802165864
 20
548.106045807016
 10
54.84969554023792
 20
548.2021072367106
 10
54.95804635371769
 20
548.1112221377207
 10
55.95422591606348
 20
548.1985507101708
 10
56.06257672954325
 20
548.1076656111818
 10
57.15837424812162
 20
548.2037270408764
 10
57.26672506160048
 20
548.1128419418865
 10
58.26290462394627
 20
548.2001705143366
 10
58.37125543742604
 20
548.1092854153476
 10
59.46705295600532
 20
548.2053468450431
 10
59.57540376948418
 20
548.1144617460523
 10
60.57158333182906
 20
548.2017903185024
 10
60.679934145308835
 20
548.1109052195134
 10
61.67611370765462
 20
548.1982337919635
 10
61.784464521134396
 20
548.1073486929736
 10
62.88026203971276
 20
548.2034101226682
 10
62.988612853192535
 20
548.1125250236792
 10
63.98479241553832
 20
548.1998535961293
 10
64.0931432290181
 20
548.1089684971394
 10
65.18894074759646
 20
548.2050299268349
 10
65.29729156107624
 20
548.1141448278449
 10
66.2934711234202
 20
548.2014734002951
 10
66.40182193689998
 20
548.1105883013051
 10
67.49761945548107
 20
548.2066497309997
 10
67.60597026896085
 20
548.1157646320116
 10
68.6021498313039
 20
548.2030932044609
 10
68.71050064478368
 20
548.1122081054709
 10
69.70668020713038
 20
548.1995366779211
 10
69.81503102060924
 20
548.108651578932
 10
70.9108285391876
 20
548.2047130086276
 10
71.01917935266738
 20
548.1138279096367
 10
72.01535891501226
 20
548.2011564820868
 10
72.12370972849112
 20
548.1102713830978
 10
73.21950724707222
 20
548.2063328127924
 10
73.32785806055199
 20
548.1154477138034
 10
74.32403762289596
 20
548.2027762862526
 10
74.43238843637482
 20
548.1118911872636
 10
75.52818595495592
 20
548.2079526169591
 10
75.63653676843478
 20
548.1170675179692
 10
76.63271633077875
 20
548.2043960904193
 10
76.74106714425852
 20
548.1135109914294
 10
77.7372467066034
 20
548.2008395638795
 10
77.84559752008317
 20
548.1099544648896
 10
78.94139503866336
 20
548.2060158945842
 10
79.04974585214313
 20
548.1151307955961
 10
80.0459254144871
 20
548.2024593680453
 10
80.15427622796688
 20
548.1115742690554
 10
81.25007374654706
 20
548.2076356987509
 10
81.35842456002683
 20
548.1167505997619
 10
82.35460412236989
 20
548.204079172212
 10
82.46295493584967
 20
548.1131940732212
 10
83.55875245442894
 20
548.2092555029167
 10
83.66710326790871
 20
548.1183704039267
 10
84.6632828302545
 20
548.2056989763769
 10
84.77163364373428
 20
548.1148138773879
 10
85.76781320607824
 20
548.2021424498371
 10
85.87616401955802
 20
548.1112573508481
 10
86.9719615381382
 20
548.2073187805436
 10
87.08031235161798
 20
548.1164336815536
 10
88.07649191396195
 20
548.2037622540038
 10
88.18484272744081
 20
548.1128771550138
 10
89.280640246021
 20
548.2089385847094
 10
89.38899105949986
 20
548.1180534857185
 10
90.38517062184656
 20
548.2053820581687
 10
90.49352143532542
 20
548.1144969591805
 10
91.5893189539047
 20
548.2105583888751
 10
91.69766976738356
 20
548.1196732898852
 10
92.69384932973026
 20
548.2070018623353
 10
92.80220014321003
 20
548.1161167633463
 10
93.79837970555309
 20
548.2034453357965
 10
93.90673051903286
 20
548.1125602368056
 10
95.00252803761214
 20
548.2086216665011
 10
95.11087885109191
 20
548.1177365675112
 10
96.1070584134377
 20
548.2050651399613
 10
96.21540922691747
 20
548.1141800409723
 10
97.31120674549584
 20
548.2102414706669
 10
97.41955755897561
 20
548.119356371677
 10
98.4157371213214
 20
548.2066849441271
 10
98.52408793480117
 20
548.1157998451381
 10
99.61988545337863
 20
548.2118612748327
 10
99.7282362668584
 20
548.1209761758428
 10
100.72441582920419
 20
548.2083047482929
 10
100.83276664268305
 20
548.117419649303
 10
101.13162051138715
 20
548.1436182210382
 10
101.18307346678284
 20
548.1004592747031
 10
101.19661160083524
 20
547.9460262858474
 10
101.10572650184622
 20
547.8376754723686
 10
101.19305507429544
 20
546.8414959100237
 10
101.10216997530642
 20
546.7331450965439
 10
101.18949854775656
 20
545.736965534199
 10
101.09861344876663
 20
545.6286147207193
 10
101.19467487846214
 20
544.53281720214
 10
101.10378977947221
 20
544.4244663886602
 10
101.19111835192234
 20
543.4282868263153
 10
101.10023325293241
 20
543.3199360128365
 10
101.19629468262792
 20
542.2241384942563
 10
101.105409583638
 20
542.1157876807774
 10
101.19273815608813
 20
541.1196081184326
 10
101.1018530570991
 20
541.0112573049528
 10
101.1979144867937
 20
539.9154597863726
 10
101.10702938780378
 20
539.8071089728937
 10
101.19435796025391
 20
538.8109294105489
 10
101.10347286126398
 20
538.7025785970691
 10
101.13359901343665
 20
538.3589218047518
 10
101.51554931195915
 20
538.038540355129
 10
102.01363909313113
 20
538.0822046413541
 10
102.12198990661
 20
537.9913195423651
 10
103.21778742519109
 20
538.0873809720597
 10
103.32613823867086
 20
537.9964958730707
 10
104.32231780101483
 20
538.0838244455199
 10
104.4306686144937
 20
537.9929393465309
 10
105.42684817683858
 20
538.080267918981
 10
105.53519899031835
 20
537.9893828199902
 10
106.63099650889944
 20
538.0854442496857
 10
106.73934732237922
 20
537.9945591506967
 10
107.73552688472228
 20
538.0818877231468
 10
107.84387769820205
 20
537.9910026241569
 10
108.93967521678223
 20
538.0870640538515
 10
109.04802603026201
 20
537.9961789548634
 10
110.04420559260598
 20
538.0835075273126
 10
110.15255640608575
 20
537.9926224283226
 10
111.24835392466503
 20
538.0886838580172
 10
111.3567047381448
 20
537.9977987590282
 10
112.35288430049059
 20
538.0851273314784
 10
112.46123511397036
 20
537.9942422324884
 10
113.45741467631433
 20
538.0815708049386
 10
113.5657654897932
 20
537.9906857059495
 10
114.66156300837429
 20
538.0867471356441
 10
114.76991382185315
 20
537.9958620366551
 10
115.01395265793599
 20
538.0172553315815
 10
115.33433410755788
 20
538.3992056301049
 10
115.25573839235312
 20
539.2957672362145
 10
115.34662349134214
 20
539.4041180496943
 10
115.25056206164754
 20
540.4999155682735
 10
115.34144716063656
 20
540.6082663817533
 10
115.25411858818643
 20
541.6044459440982
 10
115.34500368717727
 20
541.712796757577
 10
115.24894225748176
 20
542.8085942761563
 10
115.33982735647169
 20
542.916945089637
 10
115.25249878402155
 20
543.9131246519819
 10
115.34338388301057
 20
544.0214754654617
 10
115.25605531056044
 20
545.0176550278065
 10
115.34694040955037
 20
545.1260058412854
 10
115.25087897985486
 20
546.2218033598647
 10
115.34176407884479
 20
546.3301541733445
 10
115.25443550639466
 20
547.3263337356893
 10
115.34532060538459
 20
547.4346845491691
 10
115.28419060466967
 20
548.1320102428108
 10
115.32734955100477
 20
548.1834631982056
 10
115.68101845233014
 20
548.2144670467487
 10
115.78936926580991
 20
548.1235819477597
 10
116.78554882815388
 20
548.2109105202089
 10
116.89389964163274
 20
548.1200254212199
 10
117.89007920397762
 20
548.20735399367
 10
117.9984300174574
 20
548.1164688946792
 10
119.09422753603849
 20
548.2125303243747
 10
119.20257834951735
 20
548.1216452253857
 10
120.19875791186132
 20
548.2089737978358
 10
120.3071087253411
 20
548.1180886988459
 10
121.40290624392128
 20
548.2141501285405
 10
121.51125705740105
 20
548.1232650295524
 10
122.50743661974502
 20
548.2105936020016
 10
122.61578743322389
 20
548.1197085030117
 10
123.71158495180407
 20
548.2157699327063
 10
123.81993576528384
 20
548.1248848337173
 10
124.81611532762963
 20
548.2122134061674
 10
124.9244661411094
 20
548.1213283071775
 10
125.92064570345337
 20
548.2086568796276
 10
126.02899651693224
 20
548.1177717806386
 10
127.12479403551242
 20
548.2138332103332
 10
127.2331448489922
 20
548.1229481113442
 10
128.22932441133617
 20
548.2102766837934
 10
128.33767522481594
 20
548.1193915848044
 10
129.4334727433952
 20
548.215453014499
 10
129.541823556875
 20
548.124567915509
 10
130.53800311922078
 20
548.2118964879592
 10
130.64635393270055
 20
548.1210113889701
 10
131.74215145127891
 20
548.2170728186657
 10
131.85050226475778
 20
548.1261877196748
 10
132.84668182710448
 20
548.213516292125
 10
132.95503264058334
 20
548.1226311931368
 10
134.05083015916262
 20
548.2186926228314
 10
134.15918097264148
 20
548.1278075238415
 10
135.15536053498636
 20
548.2151360962907
 10
135.26371134846613
 20
548.1242509973017
 10
136.25989091081192
 20
548.2115795697518
 10
136.3682417242917
 20
548.1206944707619
 10
137.46403924287006
 20
548.2167559004574
 10
137.57239005634983
 20
548.1258708014675
 10
138.56856961869562
 20
548.2131993739176
 10
138.67692043217448
 20
548.1223142749286
 10
139.77271795075376
 20
548.2183757046232
 10
139.88106876423353
 20
548.1274906056342
 10
140.8772483265775
 20
548.2148191780834
 10
140.98559914005727
 20
548.1239340790935
 10
142.08139665863837
 20
548.2199955087881
 10
142.18974747211723
 20
548.1291104098
 10
143.1859270344612
 20
548.2164389822501
 10
143.29427784794098
 20
548.1255538832593
 10
144.29045741028767
 20
548.2128824557094
 10
144.39880822376654
 20
548.1219973567204
 10
145.4946057423449
 20
548.218058786415
 10
145.60295655582468
 20
548.127173687426
 10
146.59913611816955
 20
548.2145022598752
 10
146.70748693164842
 20
548.1236171608853
 10
147.8032844502295
 20
548.2196785905808
 10
147.9116352637093
 20
548.1287934915918
 10
148.90781482605325
 20
548.2161220640419
 10
149.01616563953303
 20
548.125236965051
 10
150.1119631581123
 20
548.2212983947466
 10
150.22031397159208
 20
548.1304132957575
 10
151.21649353393605
 20
548.2177418682077
 10
151.32484434741582
 20
548.1268567692177
 10
152.3210239097607
 20
548.214185341667
 10
152.42937472324047
 20
548.1233002426779
 10
153.52517224182066
 20
548.2193616723735
 10
153.63352305530043
 20
548.1284765733835
 10
154.6297026176444
 20
548.2158051458337
 10
154.73805343112417
 20
548.1249200468437
 10
155.83385094970436
 20
548.2209814765392
 10
155.94220176318413
 20
548.1300963775493
 10
156.9383813255272
 20
548.2174249499994
 10
157.04673213900696
 20
548.1265398510104
 10
158.14252965758624
 20
548.222601280705
 10
158.250880471066
 20
548.1317161817151
 10
159.2470600334118
 20
548.2190447541652
 10
159.35541084689157
 20
548.1281596551762
 10
160.35159040923554
 20
548.2154882276263
 10
160.45994122271532
 20
548.1246031286355
 10
161.5557387412964
 20
548.220664558331
 10
161.66408955477527
 20
548.129779459342
 10
162.66026911711924
 20
548.2171080317921
 10
162.7686199305981
 20
548.1262229328022
 10
163.8644174491783
 20
548.2222843624968
 10
163.97276826265715
 20
548.1313992635078
 10
164.96894782500385
 20
548.2187278359579
 10
165.07729863848363
 20
548.127842736968
 10
166.173096157062
 20
548.2239041666626
 10
166.28144697054086
 20
548.1330190676736
 10
167.27762653288755
 20
548.2203476401237
 10
167.38597734636733
 20
548.1294625411338
 10
168.38215690871039
 20
548.2167911135839
 10
168.49050772219016
 20
548.1259060145949
 10
169.58630524076943
 20
548.2219674442895
 10
169.6946560542492
 20
548.1310823452995
 10
170.690835616595
 20
548.2184109177497
 10
170.79918643007386
 20
548.1275258187607
 10
171.89498394865313
 20
548.2235872484553
 10
172.0033347621329
 20
548.1327021494653
 10
172.9995143244787
 20
548.2200307219155
 10
173.10786513795847
 20
548.1291456229264
 10
174.20366265653593
 20
548.225207052622
 10
174.3120134700157
 20
548.1343219536311
 10
175.3081930323615
 20
548.2216505260812
 10
175.41654384584035
 20
548.1307654270922
 10
176.41272340818705
 20
548.2180939995424
 10
176.5210742216659
 20
548.1272089005524
 10
177.61687174024428
 20
548.223270330247
 10
177.72522255372405
 20
548.132385231258
 10
178.72140211606984
 20
548.2197138037081
 10
178.8297529295496
 20
548.1288287047182
 10
179.92555044812798
 20
548.2248901344137
 10
180.03390126160684
 20
548.1340050354238
 10
181.03008082395263
 20
548.2213336078739
 10
181.1384316374324
 20
548.130448508884
 10
182.2342291560126
 20
548.2265099385786
 10
182.34257996949145
 20
548.1356248395905
 10
183.33875953183542
 20
548.2229534120397
 10
183.4471103453152
 20
548.1320683130498
 10
184.44328990766098
 20
548.2193968854999
 10
184.55164072114076
 20
548.1285117865109
 10
185.64743823971912
 20
548.2245732162064
 10
185.7557890531989
 20
548.1336881172156
 10
186.75196861554377
 20
548.2210166896657
 10
186.86031942902355
 20
548.1301315906767
 10
187.95611694760373
 20
548.2261930203713
 10
188.0644677610835
 20
548.1353079213823
 10
189.06064732342747
 20
548.2226364938315
 10
189.16899813690634
 20
548.1317513948425
 10
190.26479565548743
 20
548.2278128245371
 10
190.3731464689672
 20
548.136927725548
 10
191.36932603131118
 20
548.2242562979982
 10
191.47767684479004
 20
548.1333711990073
 10
192.47385640713492
 20
548.2206997714575
 10
192.5822072206147
 20
548.1298146724685
 10
193.67800473919579
 20
548.225876102163
 10
193.78635555267556
 20
548.134991003174
 10
194.78253511501862
 20
548.2223195756233
 10
194.89088592849748
 20
548.1314344766342
 10
195.98668344707858
 20
548.2274959063298
 10
196.09503426055835
 20
548.1366108073398
 10
197.09121382290232
 20
548.22393937979
 10
197.1995646363821
 20
548.1330542808
 10
198.29536215496137
 20
548.2291157104955
 10
198.40371296844023
 20
548.1382306115047
 10
199.39989253078693
 20
548.2255591839548
 10
199.5082433442667
 20
548.1346740849667
 10
200.50442290661067
 20
548.2220026574159
 10
200.61277372008954
 20
548.131117558426
 10
201.70857123867063
 20
548.2271789881215
 10
201.8169220521495
 20
548.1362938891325
 10
202.81310161449346
 20
548.2236224615826
 10
202.92145242797324
 20
548.1327373625918
 10
204.0172499465525
 20
548.2287987922873
 10
204.12560076003228
 20
548.1379136932974
 10
205.12178032237807
 20
548.2252422657475
 10
205.23013113585785
 20
548.1343571667585
 10
206.3259286544362
 20
548.2304185964531
 10
206.43427946791508
 20
548.1395334974641
 10
207.43045903026177
 20
548.2268620699142
 10
207.53880984374064
 20
548.1359769709243
 10
208.5349894060846
 20
548.2233055433744
 10
208.64334021956438
 20
548.1324204443845
 10
209.73913773814365
 20
548.22848187408
 10
209.84748855162343
 20
548.1375967750892
 10
210.84366811396922
 20
548.2249253475393
 10
210.952018927449
 20
548.1340402485512
 10
212.04781644602735
 20
548.2301016782458
 10
212.15616725950713
 20
548.1392165792558
 10
213.15234682185292
 20
548.226545151706
 10
213.2606976353327
 20
548.135660052717
 10
214.35649515391106
 20
548.2317214824116
 10
214.46484596739083
 20
548.1408363834216
 10
215.4610255297348
 20
548.2281649558718
 10
215.56937634321457
 20
548.1372798568818
 10
216.56555590556127
 20
548.224608429332
 10
216.67390671904013
 20
548.133723330343
 10
217.7697042376194
 20
548.2297847600375
 10
217.87805505109827
 20
548.1388996610485
 10
218.87423461344406
 20
548.2262282334987
 10
218.98258542692383
 20
548.1353431345087
 10
220.0783829455022
 20
548.2314045642033
 10
220.18673375898197
 20
548.1405194652143
 10
221.18291332132685
 20
548.2278480376644
 10
221.29126413480662
 20
548.1369629386736
 10
222.3870616533868
 20
548.2330243683691
 10
222.49541246686658
 20
548.1421392693801
 10
223.49159202921055
 20
548.2294678418302
 10
223.59994284269033
 20
548.1385827428403
 10
224.5961224050361
 20
548.2259113152904
 10
224.7044732185159
 20
548.1350262163014
 10
225.80027073709334
 20
548.231087645996
 10
225.90862155057312
 20
548.1402025470061
 10
226.904801112918
 20
548.2275311194562
 10
227.01315192639777
 20
548.1366460204663
 10
228.10894944497795
 20
548.2327074501618
 10
228.21730025845773
 20
548.1418223511719
 10
229.2134798208017
 20
548.229150923622
 10
229.32183063428147
 20
548.138265824633
 10
230.41762815286165
 20
548.2343272543276
 10
230.52597896634052
 20
548.1434421553386
 10
231.5221585286854
 20
548.2307707277878
 10
231.63050934216426
 20
548.1398856287988
 10
232.72630686074444
 20
548.2359470584934
 10
232.8346576742233
 20
548.1450619595034
 10
233.83083723657
 20
548.2323905319536
 10
233.93918805004887
 20
548.1415054329645
 10
234.93536761239284
 20
548.2288340054147
 10
235.0437184258726
 20
548.1379489064248
 10
236.1395159444537
 20
548.2340103361194
 10
236.24786675793257
 20
548.1431252371303
 10
237.24404632027654
 20
548.2304538095796
 10
237.3523971337563
 20
548.1395687105905
 10
238.4481946523356
 20
548.2356301402851
 10
238.55654546581445
 20
548.1447450412952
 10
239.55272502816115
 20
548.2320736137453
 10
239.66107584164092
 20
548.1411885147563
 10
240.7568733602193
 20
548.2372499444518
 10
240.86522417369906
 20
548.146364845461
 10
241.86140373604485
 20
548.2336934179111
 10
241.96975454952462
 20
548.142808318923
 10
242.96593411186768
 20
548.2301368913722
 10
243.07428492534746
 20
548.1392517923823
 10
244.17008244392673
 20
548.2353132220769
 10
244.2784332574065
 20
548.1444281230879
 10
245.2746128197532
 20
548.231756695538
 10
245.38296363323207
 20
548.1408715965481
 10
246.47876115181043
 20
548.2369330262436
 10
246.5871119652902
 20
548.1460479272537
 10
247.583291527636
 20
548.2333764997038
 10
247.69164234111577
 20
548.1424914007148
 10
248.78743985969413
 20
548.2385528304094
 10
248.895790673173
 20
548.1476677314204
 10
249.89197023551878
 20
548.2349963038696
 10
250.00032104899856
 20
548.1441112048797
 10
250.99650061134435
 20
548.2314397773298
 10
251.1048514248232
 20
548.1405546783408
 10
252.20064894340157
 20
548.2366161080363
 10
252.30899975688135
 20
548.1457310090454
 10
253.30517931922714
 20
548.2330595814956
 10
253.4135301327069
 20
548.1421744825075
 10
254.50932765128528
 20
548.2382359122021
 10
254.61767846476414
 20
548.1473508132121
 10
255.61385802710993
 20
548.2346793856614
 10
255.7222088405897
 20
548.1437942866723
 10
256.8180063591699
 20
548.239855716367
 10
256.92635717264966
 20
548.1489706173779
 10
257.9225367349927
 20
548.2362991898281
 10
258.0308875484725
 20
548.1454140908381
 10
259.0270671108183
 20
548.2327426632883
 10
259.13541792429805
 20
548.1418575642992
 10
260.2312154428764
 20
548.2379189939938
 10
260.3395662563562
 20
548.1470338950048
 10
261.33574581870107
 20
548.234362467454
 10
261.44409663218084
 20
548.1434773684641
 10
262.53989415076103
 20
548.2395387981587
 10
262.6482449642408
 20
548.1486536991706
 10
263.64442452658477
 20
548.2359822716207
 10
263.75277534006364
 20
548.1450971726299
 10
264.84857285864473
 20
548.2411586023254
 10
264.9569236721245
 20
548.1502735033364
 10
265.9531032344685
 20
548.2376020757865
 10
266.06145404794825
 20
548.1467169767966
 10
267.0576336102922
 20
548.2340455492458
 10
267.165984423772
 20
548.1431604502568
 10
268.2617819423531
 20
548.2392218799514
 10
268.37013275583286
 20
548.1483367809624
 10
269.3663123181759
 20
548.2356653534125
 10
269.4746631316557
 20
548.1447802544226
 10
270.5704606502359
 20
548.2408416841181
 10
270.67881146371565
 20
548.1499565851282
 10
271.6749910260596
 20
548.2372851575783
 10
271.7833418395394
 20
548.1464000585893
 10
272.87913935811866
 20
548.2424614882839
 10
272.98749017159844
 20
548.151576389294
 10
273.9836697339442
 20
548.2389049617441
 10
274.092020547424
 20
548.1480198627551
 10
275.08820010976797
 20
548.2353484352052
 10
275.19655092324683
 20
548.1444633362144
 10
276.2923484418279
 20
548.2405247659099
 10
276.4006992553068
 20
548.1496396669208
 10
277.39687881765076
 20
548.236968239371
 10
277.50522963113053
 20
548.146083140381
 10
278.6010271497098
 20
548.2421445700757
 10
278.7093779631896
 20
548.1512594710866
 10
279.70555752553537
 20
548.2385880435368
 10
279.81390833901514
 20
548.1477029445468
 10
280.9097058575935
 20
548.2437643742414
 10
281.0180566710724
 20
548.1528792752524
 10
282.01423623341907
 20
548.2402078477025
 10
282.12258704689793
 20
548.1493227487126
 10
283.1187666092419
 20
548.2366513211628
 10
283.2271174227217
 20
548.1457662221728
 10
284.32291494130095
 20
548.2418276518674
 10
284.4312657547807
 20
548.1509425528784
 10
285.4274453171265
 20
548.2382711253285
 10
285.5357961306063
 20
548.1473860263386
 10
286.63159364918465
 20
548.2434474560332
 10
286.7399444626644
 20
548.1525623570442
 10
287.7361240250102
 20
548.2398909294943
 10
287.84447483849
 20
548.1490058305044
 10
288.94027235706835
 20
548.2450672601999
 10
289.0486231705481
 20
548.15418216121
 10
290.044802732893
 20
548.2415107336601
 10
290.15315354637187
 20
548.1506256346702
 10
291.14933310871766
 20
548.2379542071203
 10
291.25768392219743
 20
548.1470691081313
 10
292.3534814407767
 20
548.2431305378259
 10
292.46183225425557
 20
548.152245438836
 10
293.45801181660227
 20
548.2395740112861
 10
293.56636263008113
 20
548.1486889122971
 10
294.6621601486595
 20
548.2447503419926
 10
294.77051096213927
 20
548.1538652430017
 10
295.36821869954656
 20
548.2062623864722
 10
295.41967165494225
 20
548.1631034401371
 10
295.44194264624
 20
547.909052495047
 10
295.351057547251
 20
547.8007016815682
 10
295.4383861197002
 20
546.8045221192233
 10
295.3475010207112
 20
546.6961713057435
 10
295.4435624504058
 20
545.6003737871642
 10
295.3526773514159
 20
545.4920229736845
 10
295.440005923866
 20
544.4958434113396
 10
295.349120824877
 20
544.3874925978589
 10
295.4451822545716
 20
543.2916950792805
 10
295.35429715558257
 20
543.1833442658008
 10
295.41062187948864
 20
542.5408336047794
 10
295.79257217801114
 20
542.2204521551575
 10
296.09142604671524
 20
542.2466507268928
 10
296.199776860195
 20
542.1557656279028
 10
297.1959564225408
 20
542.2430942003521
 10
297.30430723601967
 20
542.152209101364
 10
298.30048679836364
 20
542.2395376738141
 10
298.4088376118434
 20
542.1486525748232
 10
299.5046351304236
 20
542.2447140045188
 10
299.61298594390337
 20
542.1538289055297
 10
300.60916550624734
 20
542.2411574779799
 10
300.7175163197271
 20
542.1502723789899
 10
301.36253000800025
 20
542.2068165269893
 10
301.4413451472974
 20
541.3077518936279
 10
301.3504600483084
 20
541.1994010801473
 10
301.446521478003
 20
540.103603561568
 10
301.35563637901305
 20
539.9952527480891
 10
301.4429649514632
 20
538.9990731857442
 10
301.35207985247416
 20
538.8907223722645
 10
301.44814128216876
 20
537.7949248536852
 10
301.35725618317974
 20
537.6865740402063
 10
301.44458475562897
 20
536.6903944778605
 10
301.35369965663995
 20
536.5820436643808
 10
301.4410282290901
 20
535.5858641020359
 10
301.35014313010015
 20
535.477513288557
 10
301.44620455979475
 20
534.3817157699777
 10
301.35531946080573
 20
534.273364956498
 10
301.44264803325586
 20
533.2771853941531
 10
301.35176293426593
 20
533.1688345806724
 10
301.44782436396144
 20
532.0730370620931
 10
301.3569392649715
 20
531.9646862486143
 10
301.44426783742165
 20
530.9685066862694
 10
301.3533827384317
 20
530.8601558727896
 10
301.44944416812723
 20
529.7643583542103
 10
301.3585590691373
 20
529.6560075407315
 10
301.44588764158743
 20
528.6598279783857
 10
301.3550025425984
 20
528.5514771649059
 10
301.44233111504764
 20
527.555297602561
 10
301.3514460160577
 20
527.4469467890813
 10
301.4475074457532
 20
526.351149270502
 10
301.3566223467633
 20
526.2427984570231
 10
301.4439509192134
 20
525.2466188946782
 10
301.3530658202244
 20
525.1382680811976
 10
301.449127249919
 20
524.0424705626183
 10
301.35824215093
 20
523.9341197491394
 10
301.4455707233801
 20
522.9379401867945
 10
301.3546856243902
 20
522.8295893733148
 10
301.4507470540848
 20
521.7337918547355
 10
301.35986195509486
 20
521.6254410412566
 10
301.447190527545
 20
520.6292614789108
 10
301.35630542855597
 20
520.5209106654311
 10
301.4436340010061
 20
519.5247311030862
 10
301.3527489020162
 20
519.4163802896064
 10
301.4488103317117
 20
518.3205827710271
 10
301.35792523272175
 20
518.2122319575483
 10
301.4452538051719
 20
517.2160523952034
 10
301.35436870618196
 20
517.1077015817227
 10
301.45043013587656
 20
516.0119040631434
 10
301.35954503688754
 20
515.9035532496646
 10
301.4468736093377
 20
514.9073736873197
 10
301.35598851034865
 20
514.7990228738399
 10
301.45204994004325
 20
513.7032253552607
 10
301.3611648410533
 20
513.5948745417818
 10
301.44849341350346
 20
512.598694979436
 10
301.3576083145135
 20
512.4903441659562
 10
301.44493688696366
 20
511.49416460361135
 10
301.35405178797464
 20
511.3858137901316
 10
301.45011321766924
 20
510.2900162715523
 10
301.3592281186802
 20
510.18166545807344
 10
301.44655669113035
 20
509.18548589572856
 10
301.3556715921404
 20
509.0771350822488
 10
301.451733021835
 20
507.9813375636686
 10
301.360847922846
 20
507.87298675018974
 10
301.44817649529523
 20
506.87680718784486
 10
301.3572913963062
 20
506.7684563743651
 10
301.4533528260008
 20
505.6726588557858
 10
301.3624677270118
 20
505.56430804230604
 10
301.4497962994619
 20
504.56812847996025
 10
301.358911200472
 20
504.4597776664814
 10
301.4462397729221
 20
503.4635981041365
 10
301.3553546739322
 20
503.35524729065673
 10
301.4514161036268
 20
502.25944977207746
 10
301.3605310046378
 20
502.1510989585986
 10
301.4478595770879
 20
501.1549193962537
 10
301.3569744780989
 20
501.04656858277394
 10
301.4530359077935
 20
499.95077106419376
 10
301.36215080880356
 20
499.8424202507149
 10
301.4494793812537
 20
498.84624068837
 10
301.35859428226377
 20
498.73788987489024
 10
301.4546557119593
 20
497.64209235631097
 10
301.36377061296935
 20
497.5337415428312
 10
301.4510991854195
 20
496.5375619804854
 10
301.36021408643046
 20
496.42921116700654
 10
301.4475426588806
 20
495.43303160466166
 10
301.35665755989066
 20
495.3246807911819
 10
301.45271898958526
 20
494.2288832726026
 10
301.36183389059534
 20
494.12053245912375
 10
301.44916246304547
 20
493.1243528967789
 10
301.35827736405645
 20
493.0160020832991
 10
301.45433879375105
 20
491.9202045647189
 10
301.36345369476203
 20
491.81185375123914
 10
301.45078226721216
 20
490.8156741888952
 10
301.35989716822223
 20
490.7073233754154
 10
301.45595859791774
 20
489.6115258568361
 10
301.3650734989278
 20
489.50317504335635
 10
301.45240207137704
 20
488.50699548101056
 10
301.361516972388
 20
488.3986446675317
 10
301.44884554483815
 20
487.4024651051868
 10
301.35796044584913
 20
487.29411429170705
 10
301.45402187554373
 20
486.1983167731278
 10
301.3631367765538
 20
486.0899659596489
 10
301.45046534900393
 20
485.09378639730403
 10
301.359580250014
 20
484.98543558382426
 10
301.4556416797095
 20
483.88963806524407
 10
301.3647565807196
 20
483.7812872517643
 10
301.4520851531697
 20
482.7851076894194
 10
301.3612000541807
 20
482.67675687594055
 10
301.4572614838753
 20
481.5809593573613
 10
301.3663763848863
 20
481.4726085438815
 10
301.4537049573355
 20
480.4764289815366
 10
301.3628198583456
 20
480.36807816805685
 10
301.4501484307957
 20
479.371898605712
 10
301.3592633318067
 20
479.2635477922322
 10
301.4553247615013
 20
478.1677502736529
 10
301.36443966251227
 20
478.05939946017406
 10
301.4517682349624
 20
477.0632198978292
 10
301.3608831359725
 20
476.9548690843494
 10
301.456944565668
 20
475.8590715657692
 10
301.36605946667805
 20
475.75072075228945
 10
301.4533880391273
 20
474.7545411899446
 10
301.36250294013826
 20
474.6461903764657
 10
301.45856436983286
 20
473.55039285788644
 10
301.36767927084384
 20
473.44204204440666
 10
301.45500784329397
 20
472.4458624820618
 10
301.36412274430495
 20
472.337511668582
 10
301.4514513167542
 20
471.34133210623713
 10
301.36056621776424
 20
471.23298129275736
 10
301.45662764745975
 20
470.1371837741781
 10
301.3657425484698
 20
470.0288329606983
 10
301.45307112091996
 20
469.03265339835434
 10
301.36218602193094
 20
468.92430258487457
 10
301.45824745162554
 20
467.8285050662944
 10
301.3673623526365
 20
467.7201542528146
 10
301.45469092508574
 20
466.72397469046973
 10
301.3638058260967
 20
466.61562387699087
 10
301.4598672557913
 20
465.5198263584116
 10
301.3689821568014
 20
465.4114755449318
 10
301.4563107292515
 20
464.41529598258694
 10
301.3654256302625
 20
464.30694516910717
 10
301.45275420271264
 20
463.3107656067623
 10
301.3618691037227
 20
463.2024147932825
 10
301.4579305334182
 20
462.10661727470324
 10
301.3670454344283
 20
461.99826646122347
 10
301.4543740068784
 20
461.0020868988786
 10
301.3634889078885
 20
460.8937360853997
 10
301.4595503375831
 20
459.79793856681954
 10
301.3686652385941
 20
459.68958775333977
 10
301.4559938110442
 20
458.6934081909949
 10
301.3651087120543
 20
458.585057377516
 10
301.4611701417498
 20
457.48925985893675
 10
301.37028504275986
 20
457.380909045457
 10
301.45761361521
 20
456.3847294831121
 10
301.36672851622006
 20
456.2763786696323
 10
301.4540570886702
 20
455.28019910728744
 10
301.3631719896812
 20
455.17184829380767
 10
301.3673189942101
 20
455.1245423429418
 10
300.56787231708313
 20
455.05446006088914
 10
300.45952150360336
 20
455.14534515987907
 10
299.3637239850241
 20
455.04928373018447
 10
299.2553731715443
 20
455.1401688291735
 10
298.2591936091985
 20
455.05284025672427
 10
298.15084279571875
 20
455.1437253557133
 10
297.1546632333748
 20
455.05639678326315
 10
297.0463124198959
 20
455.1472818822531
 10
295.9505149013157
 20
455.0512204525576
 10
295.7636234290703
 20
455.2079857726294
 10
295.3773617583656
 20
454.7474948153422
 10
295.4559574735713
 20
453.8509332092317
 10
295.36507237458136
 20
453.74258239575283
 10
295.46113380427596
 20
452.64678487717356
 10
295.37024870528694
 20
452.5384340636938
 10
295.45757727773616
 20
451.5422545013489
 10
295.36669217874714
 20
451.43390368786913
 10
295.46275360844174
 20
450.33810616928895
 10
295.3718685094527
 20
450.2297553558101
 10
295.45919708190286
 20
449.2335757934652
 10
295.3683119829129
 20
449.12522497998543
 10
295.37245898744277
 20
449.0779190291196
 10
295.0711020914887
 20
449.05150103329197
 10
294.9627512780089
 20
449.1423861322828
 10
293.9665717156631
 20
449.0550575598327
 10
293.85822090218426
 20
449.1459426588217
 10
292.76242338360316
 20
449.0498812291271
 10
292.6540725701243
 20
449.1407663281161
 10
291.65789300778033
 20
449.0534377556669
 10
291.54954219430056
 20
449.1443228546559
 10
290.45374467571946
 20
449.0482614249604
 10
290.3453938622406
 20
449.13914652395033
 10
289.34921429989663
 20
449.0518179515002
 10
289.24086348641777
 20
449.1427030504901
 10
288.244683924072
 20
449.05537447804
 10
288.1363331105922
 20
449.1462595770299
 10
287.040535592012
 20
449.0501981473353
 10
286.93218477853316
 20
449.14108324632343
 10
285.9360052161892
 20
449.0537546738742
 10
285.8276544027094
 20
449.14463977286414
 10
284.7318568841283
 20
449.04857834316863
 10
284.62350607064855
 20
449.13946344215765
 10
283.6273265083055
 20
449.0521348697075
 10
283.5189756948257
 20
449.14301996869835
 10
282.42317817624644
 20
449.04695853900284
 10
282.31482736276666
 20
449.1378436379928
 10
281.3186478004209
 20
449.05051506554264
 10
281.2102969869411
 20
449.14140016453166
 10
280.21411742459713
 20
449.05407159208244
 10
280.10576661111827
 20
449.14495669107146
 10
279.0099690925372
 20
449.04889526137595
 10
278.9016182790574
 20
449.1397803603659
 10
277.90543871671343
 20
449.05245178791574
 10
277.79708790323366
 20
449.1433368869057
 10
276.7012903846544
 20
449.04727545721016
 10
276.5929395711755
 20
449.138160556201
 10
275.5967600088288
 20
449.05083198375087
 10
275.48840919534905
 20
449.141717082739
 10
274.3926116767716
 20
449.0456556530444
 10
274.2842608632918
 20
449.1365407520343
 10
273.28808130094603
 20
449.0492121795842
 10
273.17973048746626
 20
449.1400972785732
 10
272.0839329688879
 20
449.0440358488786
 10
271.9755821554081
 20
449.1349209478685
 10
270.97940259306324
 20
449.0475923754184
 10
270.87105177958347
 20
449.1384774744083
 10
269.8748722172377
 20
449.0511489019582
 10
269.7665214037579
 20
449.1420340009472
 10
268.67072388518045
 20
449.0459725712526
 10
268.5623730717007
 20
449.1368576702416
 10
267.566193509354
 20
449.0495290977915
 10
267.4578426958751
 20
449.1404141967814
 10
266.36204517729675
 20
449.0443527670868
 10
266.253694363817
 20
449.13523786607584
 10
265.2575148014721
 20
449.0479092936257
 10
265.1491639879923
 20
449.13879439261655
 10
264.05336646941123
 20
449.04273296292104
 10
263.94501565593237
 20
449.13361806191006
 10
262.9488360935884
 20
449.0462894894599
 10
262.84048528010953
 20
449.13717458844985
 10
261.84430571776284
 20
449.0498460159997
 10
261.735954904284
 20
449.14073111498874
 10
260.6401573857047
 20
449.04466968529414
 10
260.53180657222583
 20
449.13555478428407
 10
259.53562700988095
 20
449.04822621183393
 10
259.4272761964012
 20
449.13911131082386
 10
258.3314786778201
 20
449.04304988112835
 10
258.2231278643412
 20
449.1339349801183
 10
257.22694830199725
 20
449.04660640766815
 10
257.1185974885175
 20
449.13749150665717
 10
256.0227999699373
 20
449.04143007696257
 10
255.91444915645752
 20
449.1323151759516
 10
254.91826959411355
 20
449.04498660350237
 10
254.80991878063378
 20
449.1358717024914
 10
253.8137392182898
 20
449.04854313004125
 10
253.70538840481004
 20
449.1394282290321
 10
252.60959088622894
 20
449.0433667993366
 10
252.50124007274917
 20
449.1342518983256
 10
251.5050605104052
 20
449.04692332587547
 10
251.39670969692634
 20
449.1378084248654
 10
250.30091217834615
 20
449.0417469951708
 10
250.19256136486638
 20
449.1326320941589
 10
249.1963818025224
 20
449.0453035217097
 10
249.08803098904264
 20
449.1361886206996
 10
247.99223347046336
 20
449.040127191005
 10
247.8838826569836
 20
449.13101228999494
 10
246.8877030946378
 20
449.0436837175448
 10
246.77935228115803
 20
449.13456881653383
 10
245.78317271881406
 20
449.0472402440837
 10
245.67482190533428
 20
449.1381253430736
 10
244.5790243867541
 20
449.042063913379
 10
244.47067357327523
 20
449.13294901236713
 10
243.47449401093127
 20
449.0456204399179
 10
243.3661431974515
 20
449.13650553890784
 10
242.27034567887222
 20
449.04044410921324
 10
242.16199486539244
 20
449.13132920820226
 10
241.16581530304666
 20
449.0440006357521
 10
241.05746448956688
 20
449.13488573474206
 10
239.96166697098852
 20
449.03882430504655
 10
239.85331615750874
 20
449.1297094040365
 10
238.85713659516296
 20
449.04238083158634
 10
238.7487857816841
 20
449.13326593057536
 10
237.7526062193392
 20
449.04593735812614
 10
237.64425540586035
 20
449.13682245711516
 10
236.54845788728016
 20
449.04076102742056
 10
236.4401070738013
 20
449.1316461264105
 10
235.4439275114546
 20
449.04431755396035
 10
235.33557669797574
 20
449.13520265294846
 10
234.23977917939646
 20
449.03914122325386
 10
234.1314283659176
 20
449.1300263222447
 10
233.1352488035709
 20
449.04269774979457
 10
233.02689799009204
 20
449.1335828487827
 10
231.93110047151367
 20
449.0375214190881
 10
231.8227496580339
 20
449.128406518078
 10
230.82657009568902
 20
449.0410779456288
 10
230.71821928221016
 20
449.1319630446178
 10
229.72203971986346
 20
449.0446344721677
 10
229.6136889063837
 20
449.1355195711576
 10
228.51789138780532
 20
449.0394581414621
 10
228.40954057432555
 20
449.130343240452
 10
227.41336101197976
 20
449.0430146680019
 10
227.30501019849999
 20
449.1338997669909
 10
226.20921267992253
 20
449.0378383372963
 10
226.10086186644276
 20
449.1287234362853
 10
225.10468230409788
 20
449.0413948638361
 10
224.9963314906181
 20
449.13227996282603
 10
223.90053397203792
 20
449.0362185331305
 10
223.79218315855815
 20
449.12710363211954
 10
222.79600359621418
 20
449.0397750596694
 10
222.6876527827344
 20
449.13066015866025
 10
221.69147322038862
 20
449.0433315862101
 10
221.58312240690884
 20
449.1342166851982
 10
220.48732488833048
 20
449.0381552555036
 10
220.3789740748516
 20
449.12904035449355
 10
219.38279451250582
 20
449.04171178204433
 10
219.27444369902605
 20
449.13259688103335
 10
218.17864618044587
 20
449.03653545133784
 10
218.070295366967
 20
449.12742055032777
 10
217.07411580462303
 20
449.04009197787764
 10
216.96576499114326
 20
449.13097707686757
 10
215.86996747256217
 20
449.03491564717206
 10
215.7616166590833
 20
449.125800746162
 10
214.76543709673933
 20
449.03847217371185
 10
214.65708628326047
 20
449.1293572727009
 10
213.66090672091468
 20
449.04202870025165
 10
213.5525559074349
 20
449.1329137992416
 10
212.45675838885472
 20
449.03685236954607
 10
212.34840757537495
 20
449.1277374685351
 10
211.35222801303098
 20
449.04040889608495
 10
211.24387719955212
 20
449.1312939950758
 10
210.14807968097102
 20
449.0352325653803
 10
210.03972886749125
 20
449.1261176643693
 10
209.04354930514728
 20
449.03878909191917
 10
208.93519849166842
 20
449.1296741909091
 10
207.83940097308823
 20
449.0336127612145
 10
207.73105015960937
 20
449.1244978602035
 10
206.73487059726358
 20
449.0371692877534
 10
206.6265197837838
 20
449.1280543867433
 10
205.63034022143984
 20
449.0407258142932
 10
205.52198940796097
 20
449.1316109132831
 10
204.42619188937988
 20
449.0355494835876
 10
204.3178410759001
 20
449.12643458257753
 10
203.32166151355614
 20
449.0391060101274
 10
203.21331070007636
 20
449.1299911091164
 10
202.1175131814971
 20
449.0339296794218
 10
202.00916236801731
 20
449.12481477841175
 10
201.01298280567153
 20
449.0374862059616
 10
200.90463199219175
 20
449.12837130495154
 10
199.8088344736143
 20
449.03230987525694
 10
199.70048366013452
 20
449.12319497424596
 10
198.70430409778874
 20
449.03586640179583
 10
198.59595328430896
 20
449.12675150078576
 10
197.599773721965
 20
449.0394229283356
 10
197.49142290848522
 20
449.13030802732465
 10
196.39562538990594
 20
449.03424659763004
 10
196.28727457642617
 20
449.12513169662
 10
195.29109501408038
 20
449.03780312416984
 10
195.1827442006006
 20
449.12868822315886
 10
194.08694668202315
 20
449.03262679346426
 10
193.97859586854338
 20
449.1235118924542
 10
192.9824163061976
 20
449.03618332000406
 10
192.87406549271782
 20
449.1270684189931
 10
191.77826797413854
 20
449.03100698929757
 10
191.66991716065968
 20
449.1218920882884
 10
190.6737375983148
 20
449.0345635158383
 10
190.56538678483503
 20
449.1254486148273
 10
189.56920722248924
 20
449.03812004237716
 10
189.46085640900947
 20
449.1290051413671
 10
188.3650588904311
 20
449.0329437116725
 10
188.25670807695224
 20
449.1238288106615
 10
187.26052851460554
 20
449.0365002382114
 10
187.15217770112667
 20
449.1273853372013
 10
186.0563801825474
 20
449.0313239075058
 10
185.94802936906854
 20
449.1222090064957
 10
184.95184980672366
 20
449.0348804340456
 10
184.84349899324388
 20
449.1257655330355
 10
183.7477014746628
 20
449.0297041033409
 10
183.63935066118302
 20
449.12058920232903
 10
182.64317109883996
 20
449.0332606298798
 10
182.53482028536018
 20
449.12414572886973
 10
181.5386407230144
 20
449.0368171564196
 10
181.43028990953462
 20
449.1277022554086
 10
180.33449239095626
 20
449.0316408257131
 10
180.22614157747648
 20
449.12252592470395
 10
179.2299620151316
 20
449.0351973522538
 10
179.12161120165274
 20
449.12608245124284
 10
178.02581368307165
 20
449.03002102154824
 10
177.91746286959187
 20
449.12090612053726
 10
176.9212833072479
 20
449.03357754808803
 10
176.81293249376904
 20
449.12446264707705
 10
175.71713497518886
 20
449.02840121738154
 10
175.60878416170908
 20
449.1192863163715
 10
174.6126045993651
 20
449.03195774392134
 10
174.50425378588534
 20
449.12284284291127
 10
173.50807422354046
 20
449.03551427046114
 10
173.3997234100607
 20
449.12639936945106
 10
172.3039258914805
 20
449.03033793975646
 10
172.19557507800073
 20
449.1212230387446
 10
171.19939551565676
 20
449.03389446629535
 10
171.091044702177
 20
449.1247795652853
 10
169.9952471835968
 20
449.02871813558977
 10
169.88689637011794
 20
449.1196032345788
 10
168.89071680777397
 20
449.03227466212866
 10
168.7823659942942
 20
449.1231597611195
 10
167.68656847571492
 20
449.027098331424
 10
167.57821766223515
 20
449.1179834304139
 10
166.58203809988936
 20
449.0306548579638
 10
166.4736872864096
 20
449.1215399569528
 10
165.47750772406562
 20
449.0342113845036
 10
165.36915691058584
 20
449.1250964834926
 10
164.27335939200475
 20
449.0290350537971
 10
164.16500857852589
 20
449.119920152787
 10
163.16882901618192
 20
449.0325915803369
 10
163.06047820270305
 20
449.1234766793268
 10
161.96468068412287
 20
449.0274152496313
 10
161.856329870644
 20
449.11830034862214
 10
160.8601503082973
 20
449.030971776172
 10
160.75179949481844
 20
449.1218568751601
 10
159.65600197623917
 20
449.0257954454655
 10
159.5476511627603
 20
449.11668054445545
 10
158.5514716004136
 20
449.0293519720053
 10
158.44312078693474
 20
449.12023707099434
 10
157.34732326835638
 20
449.02417564129973
 10
157.2389724548766
 20
449.11506074028966
 10
156.24279289253172
 20
449.02773216783953
 10
156.13444207905195
 20
449.11861726682946
 10
155.13826251670616
 20
449.0312886943793
 10
155.0299117032264
 20
449.12217379336835
 10
153.93411418464802
 20
449.02611236367375
 10
153.82576337116825
 20
449.1169974626637
 10
152.82958380882246
 20
449.02966889021354
 10
152.7212329953427
 20
449.12055398920256
 10
151.62543547676523
 20
449.02449255950796
 10
151.51708466328546
 20
449.1153776584979
 10
150.52090510094058
 20
449.02804908604776
 10
150.4125542874608
 20
449.1189341850377
 10
149.31675676888062
 20
449.0228727553422
 10
149.20840595540085
 20
449.1137578543321
 10
148.21222639305688
 20
449.026429281882
 10
148.1038755795771
 20
449.117314380871
 10
147.10769601723132
 20
449.02998580842086
 10
146.99934520375155
 20
449.1208709074108
 10
145.90354768517318
 20
449.0248094777162
 10
145.79519687169432
 20
449.1156945767052
 10
144.79901730934853
 20
449.0283660042551
 10
144.69066649586875
 20
449.1192511032459
 10
143.59486897728857
 20
449.0231896735504
 10
143.4865181638097
 20
449.1140747725394
 10
142.49033860146574
 20
449.0267462000893
 10
142.38198778798596
 20
449.1176312990792
 10
141.28619026940487
 20
449.0215698693846
 10
141.177839455926
 20
449.11245496837273
 10
140.18165989358204
 20
449.0251263959235
 10
140.07330908010226
 20
449.11601149491344
 10
139.07712951775738
 20
449.0286829224633
 10
138.9687787042776
 20
449.11956802145323
 10
137.87298118569743
 20
449.0235065917577
 10
137.76463037221765
 20
449.11439169074765
 10
136.76845080987368
 20
449.0270631182975
 10
136.66009999639482
 20
449.11794821728654
 10
135.56430247781373
 20
449.02188678759194
 10
135.45595166433395
 20
449.11277188658096
 10
134.45977210198998
 20
449.02544331413173
 10
134.35142128851112
 20
449.11632841312075
 10
133.25562376993093
 20
449.02026698342615
 10
133.14727295645207
 20
449.1111520824161
 10
132.15109339410537
 20
449.02382350996595
 10
132.0427425806265
 20
449.11470860895497
 10
131.04656301828254
 20
449.02738003650484
 10
130.93821220480277
 20
449.11826513549477
 10
129.84241468622258
 20
449.02220370580017
 10
129.7340638727428
 20
449.1130888047883
 10
128.73788431039884
 20
449.02576023233905
 10
128.62953349691907
 20
449.116645331329
 10
127.53373597833979
 20
449.0205839016344
 10
127.42538516486002
 20
449.1114690006234
 10
126.42920560251423
 20
449.02414042817327
 10
126.32085478903537
 20
449.1150255271632
 10
125.225057270457
 20
449.0189640974677
 10
125.11670645697723
 20
449.1098491964576
 10
124.12052689463144
 20
449.0225206240075
 10
124.01217608115167
 20
449.1134057229965
 10
123.0159965188077
 20
449.0260771505473
 10
122.90764570532792
 20
449.1169622495363
 10
121.81184818674865
 20
449.0209008198417
 10
121.70349737326887
 20
449.11178591883163
 10
120.70731781092309
 20
449.0244573463815
 10
120.59896699744331
 20
449.1153424453705
 10
119.50316947886586
 20
449.019281015675
 10
119.39481866538608
 20
449.11016611466584
 10
118.3986391030403
 20
449.0228375422157
 10
118.29028828956052
 20
449.1137226412038
 10
117.19449077098125
 20
449.0176612115092
 10
117.08613995750238
 20
449.10854631049915
 10
116.0899603951575
 20
449.0212177380499
 10
115.98160958167773
 20
449.11210283703895
 10
114.98543001933194
 20
449.0247742645888
 10
114.87707920585217
 20
449.11565936357783
 10
113.7812816872738
 20
449.01959793388323
 10
113.67293087379494
 20
449.11048303287316
 10
112.67675131144824
 20
449.02315446042303
 10
112.56840049796847
 20
449.11403955941205
 10
111.4726029793901
 20
449.01797812971745
 10
111.36425216591033
 20
449.10886322870647
 10
110.36807260356636
 20
449.02153465625724
 10
110.25972179008659
 20
449.1124197552472
 10
109.1639242715055
 20
449.01635832555166
 10
109.05557345802572
 20
449.1072434245407
 10
108.05939389568175
 20
449.01991485209055
 10
107.95104308220289
 20
449.1107999510814
 10
106.95486351985619
 20
449.02347137863126
 10
106.84651270637733
 20
449.1143564776203
 10
105.75071518779896
 20
449.0182950479257
 10
105.64236437431919
 20
449.1091801469147
 10
104.64618481197431
 20
449.0218515744655
 10
104.53783399849544
 20
449.1127366734554
 10
103.44203647991435
 20
449.0166752437599
 10
103.33368566643458
 20
449.1075603427489
 10
102.33750610409061
 20
449.0202317702988
 10
102.22915529061174
 20
449.1111168692896
 10
101.13335777203065
 20
449.0150554395941
 10
101.02500695855178
 20
449.1059405385831
 10
100.02882739620782
 20
449.018611966133
 10
99.92047658272804
 20
449.1094970651229
 10
98.92429702038316
 20
449.0221684926737
 10
98.81594620690339
 20
449.1130535916627
 10
97.7201486883232
 20
449.0169921619672
 10
97.61179787484343
 20
449.10787726095714
 10
96.61561831249946
 20
449.020548688507
 10
96.50726749901969
 20
449.11143378749694
 10
95.4114699804395
 20
449.0153723578014
 10
95.30311916695973
 20
449.10625745679135
 10
94.30693960461667
 20
449.0189288843412
 10
94.1985887911369
 20
449.10981398333024
 10
93.10279127255762
 20
449.01375255363564
 10
92.99444045907785
 20
449.10463765262557
 10
91.99826089673206
 20
449.01730908017544
 10
91.88991008325229
 20
449.10819417916446
 10
90.89373052090832
 20
449.0208656067143
 10
90.78537970742855
 20
449.11175070570516
 10
89.68958218884745
 20
449.01568927600965
 10
89.58123137536859
 20
449.1065743749987
 10
88.58505181302462
 20
449.01924580254854
 10
88.47670099954576
 20
449.11013090153847
 10
87.38090348096557
 20
449.01406947184387
 10
87.2725526674867
 20
449.1049545708329
 10
86.27637310514001
 20
449.01762599838275
 10
86.16802229166115
 20
449.1085110973727
 10
85.07222477308187
 20
449.0124496676781
 10
84.963873959603
 20
449.1033347666671
 10
83.96769439725631
 20
449.01600619421697
 10
83.85934358377745
 20
449.1068912932069
 10
82.86316402143348
 20
449.01956272075677
 10
82.7548132079537
 20
449.1104478197458
 10
81.65901568937443
 20
449.0143863900512
 10
81.55066487589465
 20
449.1052714890411
 10
80.55448531354887
 20
449.017942916591
 10
80.44613450006909
 20
449.10882801558
 10
79.35033698149073
 20
449.0127665858854
 10
79.24198616801095
 20
449.10365168487533
 10
78.24580660566517
 20
449.0163231124252
 10
78.13745579218539
 20
449.1072082114142
 10
77.04165827360794
 20
449.0111467817187
 10
76.93330746012816
 20
449.10203188070955
 10
75.93712789778237
 20
449.0147033082594
 10
75.82877708430351
 20
449.10558840724843
 10
74.83259752195681
 20
449.0182598347983
 10
74.72424670847795
 20
449.10914493378823
 10
73.62844918989958
 20
449.01308350409363
 10
73.52009837641981
 20
449.10396860308265
 10
72.52391881407402
 20
449.0166400306325
 10
72.41556800059425
 20
449.10752512962245
 10
71.31977048201588
 20
449.01146369992694
 10
71.21141966853611
 20
449.10234879891686
 10
70.21524010619123
 20
449.01502022646673
 10
70.10688929271237
 20
449.10590532545666
 10
69.01109177413127
 20
449.00984389576206
 10
68.90274096065241
 20
449.10072899475017
 10
67.90656139830844
 20
449.01340042230095
 10
67.79821058482867
 20
449.1042855212909
 10
66.80203102248288
 20
449.01695694884074
 10
66.6936802090031
 20
449.10784204782885
 10
65.59788269042474
 20
449.01178061813425
 10
65.48953187694497
 20
449.1026657171251
 10
64.49335231460009
 20
449.01533714467496
 10
64.38500150112031
 20
449.106222243664
 10
63.28920398254013
 20
449.0101608139694
 10
63.180853169060356
 20
449.1010459129584
 10
62.18467360671639
 20
449.0137173405092
 10
62.07632279323752
 20
449.1046024394982
 10
60.98052527465643
 20
449.0085410098027
 10
60.872174461176655
 20
449.0994261087926
 10
59.87599489883269
 20
449.0120975363425
 10
59.76764408535382
 20
449.1029826353333
 10
58.771464523008945
 20
449.0156540628832
 10
58.66311370952917
 20
449.1065391618722
 10
57.56731619094808
 20
449.0104777321776
 10
57.45896537746921
 20
449.1013628311666
 10
56.462785815125244
 20
449.0140342587174
 10
56.35443500164547
 20
449.1049193577064
 10
55.258637483065286
 20
449.0088579280109
 10
55.15028666958551
 20
449.09974302700084
 10
54.15410710724154
 20
449.0124144545507
 10
54.04575629376177
 20
449.10329955354064
 10
52.949958775182495
 20
449.0072381238451
 10
52.84160796170272
 20
449.09812322283597
 10
51.84542839935693
 20
449.01079465038583
 10
51.73707758587716
 20
449.10167974937394
 10
50.74089802353319
 20
449.0143511769247
 10
50.63254721005433
 20
449.10523627591465
 10
49.53674969147414
 20
449.00917484621914
 10
49.42839887799437
 20
449.10005994520816
 10
48.4322193156504
 20
449.012731372758
 10
48.323868502170626
 20
449.10361647174886
 10
47.22807098359135
 20
449.00755504205335
 10
47.11972017011158
 20
449.0984401410433
 10
46.12354060776579
 20
449.01111156859315
 10
46.015189794286016
 20
449.10199666758217
 10
44.91939227570856
 20
449.00593523788757
 10
44.811041462228786
 20
449.0968203368766
 10
43.81486189988209
 20
449.00949176442646
 10
43.706511086403225
 20
449.1003768634164
 10
42.61071356782395
 20
449.0043154337218
 10
42.502362754345086
 20
449.0952005327108
 10
41.50618319200021
 20
449.0078719602607
 10
41.397832378520434
 20
449.0987570592515
 10
40.401652816174646
 20
449.0114284868014
 10
40.29330200269487
 20
449.1023135857895
 10
39.19750448411651
 20
449.0062521560949
 10
39.08915367063673
 20
449.0971372550848
 10
38.092974108290946
 20
449.0098086826347
 10
37.98462329481208
 20
449.1006937816237
 10
36.88882577623281
 20
449.0046323519291
 10
36.78047496275303
 20
449.09551745091903
 10
35.784295400409064
 20
449.0081888784689
 10
35.67594458692929
 20
449.09907397745883
 10
34.5801470683482
 20
449.0030125477633
 10
34.47179625486933
 20
449.09389764675325
 10
33.475616692524454
 20
449.0065690743031
 10
33.36726587904559
 20
449.09745417329214
 10
32.37108631669889
 20
449.010125600842
 10
32.26273550322003
 20
449.10101069983193
 10
31.166937984641663
 20
449.00494927013733
 10
31.05858717116189
 20
449.09583436912635
 10
30.06240760881701
 20
449.0085057966762
 10
29.954056795338147
 20
449.09939089566706
 10
28.858259276757053
 20
449.00332946597155
 10
28.74990846327728
 20
449.09421456496057
 10
27.75372890093331
 20
449.00688599251043
 10
27.645378087453537
 20
449.09777109150036
 10
26.549580568874262
 20
449.00170966180576
 10
26.441229755394488
 20
449.0925947607939
 10
25.44505019305052
 20
449.00526618834465
 10
25.336699379570746
 20
449.0961512873346
 10
24.340519817225868
 20
449.00882271488445
 10
24.232169003746094
 20
449.0997078138744
 10
23.13637148516591
 20
449.00364638417886
 10
23.028020671686136
 20
449.0945314831688
 10
22.031841109342167
 20
449.00720291071866
 10
21.923490295862393
 20
449.0980880097077
 10
20.82769277728221
 20
449.0020265800131
 10
20.719341963802435
 20
449.0929116790021
 10
19.723162401459376
 20
449.0055831065529
 10
19.614811587979602
 20
449.0964682055419
 10
18.519014069400328
 20
449.0004067758473
 10
18.410663255920554
 20
449.0912918748372
 10
17.414483693574766
 20
449.0039633023871
 10
17.306132880094992
 20
449.0948484013761
 10
16.309953317751024
 20
449.007519828926
 10
16.20160250427125
 20
449.0984049279159
 10
15.105804985690156
 20
449.0023434982213
 10
14.997454172211292
 20
449.0932285972103
 10
14.001274609867323
 20
449.0059000247611
 10
13.892923796388459
 20
449.0967851237501
 10
12.797126277808275
 20
449.0007236940555
 10
12.68877546432941
 20
449.09160879304545
 10
11.692595901982713
 20
449.0042802205953
 10
11.584245088503849
 20
449.09516531958434
 10
11.086155307331865
 20
449.0515010333593
 10
11.034702351936176
 20
449.0946599796953
 10
11.02116421788287
 20
449.24909296855003
 10
11.112049316872799
 20
449.3574437820289
 10
11.015987887177289
 20
450.4532413006091
 10
11.106872986167218
 20
450.56159211408794
 10
11.019544413717085
 20
451.5577716764328
 10
11.110429512707015
 20
451.6661224899135
 10
11.014368083011504
 20
452.7619200084928
 10
11.105253182001434
 20
452.87027082197164
 10
11.0179246095513
 20
453.8664503843165
 10
11.10880970854032
 20
453.9748011977972
 10
11.04375212738887
 20
454.716929815052
 10
10.661801828866373
 20
455.0373112646739
 10
10.263330003928786
 20
455.0023798356942
 10
10.154979190449922
 20
455.09326493468325
 10
9.158799628103225
 20
455.005936362234
 10
9.05044881462436
 20
455.09682146122304
 10
7.9546512960450855
 20
455.00076003152844
 10
7.8463004825653115
 20
455.09164513051746
 10
6.850120920221343
 20
455.00431655806733
 10
6.741770106741569
 20
455.09520165705817
 10
5.645972588160475
 20
454.99914022736266
 10
5.5376217746807015
 20
455.0900253263517
 10
5.091843998878176
 20
455.05094689284215
 10
5.021761716825495
 20
455.85039356997004
 10
5.112646815815424
 20
455.9587443834489
 10
5.016585386119914
 20
457.0545419020282
 10
5.107470485109843
 20
457.16289271550886
 10
5.02014191265971
 20
458.15907227785374
 10
5.11102701164873
 20
458.2674230913317
 10
5.0149655819541294
 20
459.3632206099119
 10
5.105850680943149
 20
459.47157142339165
 10
5.018522108493926
 20
460.46775098573744
 10
5.1094072074829455
 20
460.5761017992154
 10
5.013345777788345
 20
461.6718993177956
 10
5.104230876778274
 20
461.78025013127444
 10
5.016902304328141
 20
462.7764296936193
 10
5.107787403317161
 20
462.8847805071
 10
5.020458830867028
 20
463.8809600694449
 10
5.111343929856957
 20
463.98931088292375
 10
5.015282500161447
 20
465.085108401503
 10
5.106167599151377
 20
465.1934592149837
 10
5.018839026702153
 20
466.1896387773286
 10
5.109724125691173
 20
466.29798959080654
 10
5.013662695996572
 20
467.3937871093867
 10
5.104547794985592
 20
467.5021379228665
 10
5.017219222535459
 20
468.4983174852114
 10
5.1081043215253885
 20
468.60666829869024
 10
5.0120428918298785
 20
469.7024658172704
 10
5.102927990819808
 20
469.8108166307493
 10
5.015599418370584
 20
470.80699619309416
 10
5.106484517359604
 20
470.91534700657485
 10
5.019155944909471
 20
471.9115265689197
 10
5.110041043898491
 20
472.0198773823986
 10
5.01397961420389
 20
473.11567490097787
 10
5.10486471319382
 20
473.22402571445855
 10
5.017536140743687
 20
474.2202052768034
 10
5.108421239733616
 20
474.3285560902814
 10
5.012359810038106
 20
475.42435360886157
 10
5.103244909028035
 20
475.53270442234134
 10
5.015916336577902
 20
476.5288839846862
 10
5.106801435566922
 20
476.637234798166
 10
5.0107400058723215
 20
477.7330323167462
 10
5.101625104861341
 20
477.84138313022413
 10
5.014296532411208
 20
478.837562692569
 10
5.105181631401138
 20
478.9459135060497
 10
5.017853058951914
 20
479.94209306839457
 10
5.108738157940934
 20
480.05044388187343
 10
5.012676728246333
 20
481.1462414004527
 10
5.103561827235353
 20
481.2545922139334
 10
5.01623325478522
 20
482.25077177627827
 10
5.1071183537751494
 20
482.3591225897562
 10
5.011056924079639
 20
483.4549201083364
 10
5.101942023069569
 20
483.5632709218162
 10
5.014613450619436
 20
484.55945048416106
 10
5.105498549609365
 20
484.66780129764084
 10
5.009437119913855
 20
485.763598816221
 10
5.100322218903784
 20
485.871949629699
 10
5.012993646453651
 20
486.86812919204385
 10
5.103878745442671
 20
486.97648000552454
 10
5.0078173157480705
 20
488.0722775241038
 10
5.098702414738
 20
488.1806283375827
 10
5.011373842287867
 20
489.17680789992755
 10
5.102258941277796
 20
489.28515871340824
 10
5.014930368827663
 20
490.2813382757531
 10
5.105815467816683
 20
490.38968908923107
 10
5.009754038122082
 20
491.48548660781216
 10
5.100639137111102
 20
491.593837421291
 10
5.013310564660969
 20
492.5900169836359
 10
5.104195663651808
 20
492.6983677971157
 10
5.008134233956298
 20
493.79416531569586
 10
5.099019332946227
 20
493.9025161291738
 10
5.011690760496094
 20
494.8986956915187
 10
5.102575859485114
 20
495.0070465049994
 10
5.0065144297905135
 20
496.10284402357865
 10
5.097399528779533
 20
496.2111948370575
 10
5.0100709563294
 20
497.2073743994024
 10
5.10095605531933
 20
497.3157252128831
 10
5.013627482869197
 20
498.31190477522796
 10
5.104512581859126
 20
498.4202555887068
 10
5.008451152164525
 20
499.516053107287
 10
5.099336251153545
 20
499.6244039207659
 10
5.012007678703412
 20
500.62058348311075
 10
5.102892777692432
 20
500.7289342965905
 10
5.0068313479978315
 20
501.8247318151707
 10
5.097716446987761
 20
501.93308262864866
 10
5.010387874537628
 20
502.92926219099354
 10
5.101272973527557
 20
503.0376130044742
 10
5.005211543832047
 20
504.1334105230535
 10
5.096096642821976
 20
504.24176133653236
 10
5.008768070371843
 20
505.23794089887724
 10
5.099653169360863
 20
505.346291712357
 10
5.01232459691073
 20
506.3424712747028
 10
5.103209695900659
 20
506.45082208818167
 10
5.007148266205149
 20
507.54661960676185
 10
5.098033365195079
 20
507.6549704202407
 10
5.010704792745855
 20
508.6511499825856
 10
5.101589891734875
 20
508.75950079606537
 10
5.0055284620402745
 20
509.85529831464555
 10
5.096413561029294
 20
509.9636491281235
 10
5.009084988579161
 20
510.9598286904684
 10
5.0999700875690905
 20
511.06817950394907
 10
5.0039086578735805
 20
512.1639770225283
 10
5.09479375686351
 20
512.2723278360072
 10
5.007465184413377
 20
513.2685073983521
 10
5.098350283403306
 20
513.3768582118319
 10
5.011021710953173
 20
514.3730377741776
 10
5.101906809942193
 20
514.4813885876565
 10
5.005845380247592
 20
515.5771861062367
 10
5.096730479237522
 20
515.6855369197156
 10
5.009401906787389
 20
516.6817164820604
 10
5.100287005777318
 20
516.7900672955402
 10
5.004225576081808
 20
517.8858648141204
 10
5.095110675071737
 20
517.9942156275984
 10
5.007782102621604
 20
518.9903951899432
 10
5.098667201610624
 20
519.0987460034239
 10
5.0026057719160235
 20
520.1945435220032
 10
5.093490870905043
 20
520.302894335483
 10
5.00616229845582
 20
521.2990738978278
 10
5.097047397445749
 20
521.4074247113067
 10
5.009718824995616
 20
522.4036042736525
 10
5.100603923984636
 20
522.5119550871314
 10
5.004542494290035
 20
523.6077526057115
 10
5.095427593279055
 20
523.7161034191904
 10
5.008099020828922
 20
524.7122829815353
 10
5.0989841198188515
 20
524.820633795015
 10
5.0029226901233415
 20
525.9164313135952
 10
5.093807789113271
 20
526.0247821270732
 10
5.006479216663138
 20
527.0209616894181
 10
5.097364315653067
 20
527.1293125028988
 10
5.0013028859584665
 20
528.225110021478
 10
5.092187984947486
 20
528.3334608349578
 10
5.004859412497353
 20
529.3296403973027
 10
5.095744511487283
 20
529.4379912107815
 10
5.00841593903715
 20
530.4341707731273
 10
5.099301038027079
 20
530.5425215866062
 10
5.003239608331569
 20
531.6383191051864
 10
5.094124707321498
 20
531.7466699186652
 10
5.006796134871365
 20
532.7428494810101
 10
5.097681233860385
 20
532.8512002944899
 10
5.0016198041657844
 20
533.9469978130692
 10
5.092504903154804
 20
534.055348626548
 10
5.005176330705581
 20
535.0515281888938
 10
5.0960614296946005
 20
535.1598790023736
 10
5.0
 20
536.2556765209529
 10
5.090885098989929
 20
536.3640273344326
 10
5.003556526539796
 20
537.3602068967775
 10
5.094441625528816
 20
537.4685577102564
 10
5.05077733930375
 20
537.9666474914293
 10
5.0939362856397565
 20
538.0181004468241
 10
5.646841099433914
 20
538.0665700098571
 10
5.755191912912778
 20
537.975684910869
 10
6.751371475256747
 20
538.0630134833182
 10
6.859722288736521
 20
537.9721283843282
 10
7.955519807315795
 20
538.0681898140228
 10
8.06387062079557
 20
537.9773047150338
 10
9.060050183141357
 20
538.064633287484
 10
9.16840099662113
 20
537.973748188494
 10
10.264198515199496
 20
538.0698096181895
 10
10.37254932867927
 20
537.9789245191996
 10
11.368728891025057
 20
538.0662530916497
 10
11.477079704504831
 20
537.9753679926607
 10
12.572877223083196
 20
538.0714294223553
 10
12.68122803656206
 20
537.9805443233663
 10
13.677407598907848
 20
538.0678728958155
 10
13.785758412386713
 20
537.9769877968256
 10
14.78193797473341
 20
538.0643163692757
 10
14.890288788213184
 20
537.9734312702867
 10
15.98608630679064
 20
538.0694926999822
 10
16.094437120270413
 20
537.9786076009914
 10
17.0906166826162
 20
538.0659361734415
 10
17.198967496095975
 20
537.9750510744534
 10
18.29476501467434
 20
538.071112504148
 10
18.403115828154114
 20
537.9802274051581
 10
19.39929539049899
 20
538.0675559776073
 10
19.507646203978766
 20
537.9766708786183
 10
20.60344372255895
 20
538.0727323083129
 10
20.711794536038724
 20
537.9818472093239
 10
21.707974098381783
 20
538.069175781774
 10
21.816324911861557
 20
537.9782906827841
 10
22.812504474208254
 20
538.0656192552342
 10
22.920855287687118
 20
537.9747341562452
 10
24.016652806265483
 20
538.0707955859398
 10
24.125003619745257
 20
537.9799104869508
 10
24.966750193235384
 20
538.0537009253476
 10
25.287131642858185
 20
538.4356512238692
 10
25.252200213877586
 20
538.8341230488068
 10
25.343085312867515
 20
538.9424738622874
 10
25.255756740417382
 20
539.9386534246323
 10
25.346641839406402
 20
540.0470042381121
 10
25.2505804097118
 20
541.1428017566905
 10
25.34146550870082
 20
541.2511525701711
 10
25.254136936251598
 20
542.247332132516
 10
25.345022035241527
 20
542.3556829459949
 10
25.248960605546017
 20
543.4514804645751
 10
25.339845704535946
 20
543.5598312780539
 10
25.252517132085814
 20
544.5560108403997
 10
25.343402231074833
 20
544.6643616538786
 10
25.2560736586247
 20
545.6605412162235
 10
25.34695875761463
 20
545.7688920297032
 10
25.25089732792003
 20
546.8646895482816
 10
25.34178242690905
 20
546.9730403617623
 10
25.254453854459825
 20
547.9692199241072
 10
25.345338953448845
 20
548.0775707375869
 10
25.341191948919004
 20
548.1248766884519
  0
LWPOLYLINE
  5
4C
330
17
100
AcDbEntity
  8
CORTE
100
AcDbPolyline
 90
13
 70
0
 10
301.30252063097305
 20
542.0940192582484
 10
301.31756983660216
 20
455.09434260736816
 10
5.0674362483478035
 20
455.04309725394796
 10
5.053100665544662
 20
537.9173100647567
 10
25.303100362595615
 20
537.9208129100607
 10
25.30134889088822
 20
548.046096275416
 10
101.05134775756505
 20
548.0591995115828
 10
101.05309922133074
 20
537.933962153008
 10
115.3030990081379
 20
537.936427118223
 10
115.30133997744178
 20
548.0617104822741
 10
295.30147836137894
 20
548.092981287612
 10
295.3025207207802
 20
542.0929813781322
 10
301.30252063097305
 20
542.0940192582484
  0
LINE
  5
4D
330
17
100
AcDbEntity
  8
CORTE
100
AcDbLine
 10
105.17810280200229
 20
537.9346756962195
 30
0.0
 11
105.19248075698579
 21
455.0604168859418
 31
0.0
  0
LINE
  5
4E
330
17
100
AcDbEntity
  8
CORTE
100
AcDbLine
 10
111.19248066723048
 20
455.06145476602705
 30
0.0
 11
111.17810271224698
 21
537.9357135763075
 31
0.0
  0
LINE
  5
4F
330
17
100
AcDbEntity
  8
CORTE
100
AcDbLine
 10
246.19245564416997
 20
455.0848070641132
 30
0.0
 11
246.17740643853995
 21
542.0844837149943
 31
0.0
  0
LINE
  5
50
330
17
100
AcDbEntity
  8
CORTE
100
AcDbLine
 10
240.1774065282998
 20
542.0834458349082
 30
0.0
 11
240.19245573392527
 21
455.0837691840252
 31
0.0
  0
LINE
  5
51
330
17
100
AcDbEntity
  8
CORTE
100
AcDbLine
 10
115.41479848295148
 20
542.0617301024922
 30
0.0
 11
295.3025207207802
 21
542.0929813781322
 31
0.0
  0
LINE
  5
52
330
17
100
AcDbEntity
  8
CORTE
100
AcDbLine
 10
295.3025207207802
 20
542.0929813781322
 30
0.0
 11
295.3176151492071
 21
454.8318710442727
 31
0.0
  0
LINE
  5
53
330
17
100
AcDbEntity
  8
CORTE
100
AcDbLine
 10
295.31771011785986
 20
454.28285588068684
 30
0.0
 11
295.317786409315
 21
453.84181387507306
 31
0.0
  0
LINE
  5
54
330
17
100
AcDbEntity
  8
CORTE
100
AcDbLine
 10
295.3179085890106
 20
453.1354912771885
 30
0.0
 11
295.3179957272232
 21
452.6317440016046
 31
0.0
  0
LINE
  5
55
330
17
100
AcDbEntity
  8
CORTE
100
AcDbLine
 10
295.3181070601595
 20
451.9881266736911
 30
0.0
 11
295.31818601623036
 21
451.53168048027146
 31
0.0
  0
LINE
  5
56
330
17
100
AcDbEntity
  8
CORTE
100
AcDbLine
 10
295.3183055313093
 20
450.8407620701937
 30
0.0
 11
295.3183953341386
 21
450.321610606803
 31
0.0
  0
LINE
  5
57
330
17
100
AcDbEntity
  8
CORTE
100
AcDbLine
 10
295.3185040024591
 20
449.6933974666972
 30
0.0
 11
295.31858562314665
 21
449.22154708546987
 31
0.0
  0
LINE
  5
58
330
17
100
AcDbEntity
  8
CORTE
100
AcDbLine
 10
11.067473622820216
 20
454.8275538591024
 30
0.0
 11
11.053100575789358
 21
537.9183479448466
 31
0.0
  0
LINE
  5
59
330
17
100
AcDbEntity
  8
CORTE
100
AcDbLine
 10
25.37216041587635
 20
542.0461084346334
 30
0.0
 11
101.00998742589854
 21
542.0591922673102
 31
0.0
  0
LWPOLYLINE
  5
5A
330
17
100
AcDbEntity
  8
CORTE
100
AcDbPolyline
 90
11
 70
1
 10
289.25000000035016
 20
289.2501824933888
 10
376.24967795282464
 20
289.2501380204603
 10
376.24953264839587
 20
5.0
 10
293.3753185977157
 20
5.000042364069486
 10
293.3753258821007
 20
19.250042364071305
 10
289.2500423652573
 20
19.250044472840273
 10
289.25008108751626
 20
95.00004447280753
 10
293.3753185975802
 20
95.0000423640804
 10
293.3753258819679
 20
109.25004236407676
 10
289.2500423651172
 20
109.25004139312296
 10
289.25000000035016
 20
289.2501824933888
  0
LWPOLYLINE
  5
5B
330
17
100
AcDbEntity
  8
CORTE
100
AcDbPolyline
 90
13
 70
1
 10
310.46117014219726
 20
298.2501824934052
 10
301.4611701422027
 20
298.25018249339155
 10
301.4611701417498
 20
595.2503205137309
 10
310.4611701417598
 20
595.2503205137446
 10
310.46117014174706
 20
604.2503205137573
 10
337.4611701417316
 20
604.2503205137718
 10
337.46117014174524
 20
595.2503205137873
 10
346.4611701417516
 20
595.250320513801
 10
346.46117014220545
 20
298.25018249345794
 10
337.46117014219544
 20
298.2501824934443
 10
337.4611701422091
 20
289.2501824934279
 10
310.46117014221
 20
289.2501824933888
 10
310.46117014219726
 20
298.2501824934052
  0
LWPOLYLINE
  5
5C
330
17
100
AcDbEntity
  8
CORTE
100
AcDbPolyline
 90
5
 70
0
 10
301.4611701422027
 20
298.25018249339155
 10
301.4611701417498
 20
595.2503205137309
 10
346.4611701417516
 20
595.250320513801
 10
346.46117014220545
 20
298.25018249345794
 10
301.4611701422027
 20
298.25018249339155
  0
LWPOLYLINE
  5
5D
330
17
100
AcDbEntity
  8
CORTE
100
AcDbPolyline
 90
5
 70
0
 10
310.46117014221
 20
289.2501824933888
 10
310.46117014174706
 20
604.2503205137573
 10
337.4611701417316
 20
604.2503205137718
 10
337.4611701422091
 20
289.2501824934279
 10
310.46117014221
 20
289.2501824933888
  0
ENDSEC
  0
SECTION
  2
OBJECTS
  0
DICTIONARY
  5
A
330
0
100
AcDbDictionary
281
1
  3
ACAD_COLOR
350
B
  3
ACAD_GROUP
350
C
  3
ACAD_LAYOUT
350
D
  3
ACAD_MATERIAL
350
E
  3
ACAD_MLEADERSTYLE
350
F
  3
ACAD_MLINESTYLE
350
10
  3
ACAD_PLOTSETTINGS
350
11
  3
ACAD_PLOTSTYLENAME
350
12
  3
ACAD_SCALELIST
350
14
  3
ACAD_TABLESTYLE
350
15
  3
ACAD_VISUALSTYLE
350
16
  3
EZDXF_META
350
2D
  0
DICTIONARY
  5
B
330
A
100
AcDbDictionary
281
1
  0
DICTIONARY
  5
C
330
A
100
AcDbDictionary
281
1
  0
DICTIONARY
  5
D
330
A
100
AcDbDictionary
281
1
  3
Model
350
1A
  3
Layout1
350
1E
  0
DICTIONARY
  5
E
330
A
100
AcDbDictionary
281
1
  3
ByBlock
350
1F
  3
ByLayer
350
20
  3
Global
350
21
  0
DICTIONARY
  5
F
330
A
100
AcDbDictionary
281
1
  3
Standard
350
2C
  0
DICTIONARY
  5
10
330
A
100
AcDbDictionary
281
1
  3
Standard
350
22
  0
DICTIONARY
  5
11
330
A
100
AcDbDictionary
281
1
  0
ACDBDICTIONARYWDFLT
  5
12
330
A
100
AcDbDictionary
281
1
  3
Normal
350
13
100
AcDbDictionaryWithDefault
340
13
  0
ACDBPLACEHOLDER
  5
13
330
12
  0
DICTIONARY
  5
14
330
A
100
AcDbDictionary
281
1
  0
DICTIONARY
  5
15
330
A
100
AcDbDictionary
281
1
  0
DICTIONARY
  5
16
330
A
100
AcDbDictionary
281
1
  0
LAYOUT
  5
1A
330
D
100
AcDbPlotSettings
  1

  4
A3
  6

 40
7.5
 41
20.0
 42
7.5
 43
20.0
 44
420.0
 45
297.0
 46
0.0
 47
0.0
 48
0.0
 49
0.0
140
0.0
141
0.0
142
1.0
143
1.0
 70
1024
 72
1
 73
0
 74
5
  7

 75
16
 76
0
 77
2
 78
300
147
1.0
148
0.0
149
0.0
100
AcDbLayout
  1
Model
 70
1
 71
0
 10
0.0
 20
0.0
 11
420.0
 21
297.0
 12
0.0
 22
0.0
 32
0.0
 14
1e+20
 24
1e+20
 34
1e+20
 15
-1e+20
 25
-1e+20
 35
-1e+20
146
0.0
 13
0.0
 23
0.0
 33
0.0
 16
1.0
 26
0.0
 36
0.0
 17
0.0
 27
1.0
 37
0.0
 76
1
330
17
  0
LAYOUT
  5
1E
330
D
100
AcDbPlotSettings
  1

  4
A3
  6

 40
7.5
 41
20.0
 42
7.5
 43
20.0
 44
420.0
 45
297.0
 46
0.0
 47
0.0
 48
0.0
 49
0.0
140
0.0
141
0.0
142
1.0
143
1.0
 70
0
 72
1
 73
0
 74
5
  7

 75
16
 76
0
 77
2
 78
300
147
1.0
148
0.0
149
0.0
100
AcDbLayout
  1
Layout1
 70
1
 71
1
 10
0.0
 20
0.0
 11
420.0
 21
297.0
 12
0.0
 22
0.0
 32
0.0
 14
1e+20
 24
1e+20
 34
1e+20
 15
-1e+20
 25
-1e+20
 35
-1e+20
146
0.0
 13
0.0
 23
0.0
 33
0.0
 16
1.0
 26
0.0
 36
0.0
 17
0.0
 27
1.0
 37
0.0
 76
1
330
1B
  0
MATERIAL
  5
1F
102
{ACAD_REACTORS
330
E
102
}
330
E
100
AcDbMaterial
  1
ByBlock
  2

 70
0
 40
1.0
 71
1
 41
1.0
 91
-1023410177
 42
1.0
 72
1
  3

 73
1
 74
1
 75
1
 44
0.5
 73
0
 45
1.0
 46
1.0
 77
1
  4

 78
1
 79
1
170
1
 48
1.0
171
1
  6

172
1
173
1
174
1
140
1.0
141
1.0
175
1
  7

176
1
177
1
178
1
143
1.0
179
1
  8

270
1
271
1
272
1
145
1.0
146
1.0
273
1
  9

274
1
275
1
276
1
 42
1.0
 72
1
  3

 73
1
 74
1
 75
1
 94
63
  0
MATERIAL
  5
20
102
{ACAD_REACTORS
330
E
102
}
330
E
100
AcDbMaterial
  1
ByLayer
  2

 70
0
 40
1.0
 71
1
 41
1.0
 91
-1023410177
 42
1.0
 72
1
  3

 73
1
 74
1
 75
1
 44
0.5
 73
0
 45
1.0
 46
1.0
 77
1
  4

 78
1
 79
1
170
1
 48
1.0
171
1
  6

172
1
173
1
174
1
140
1.0
141
1.0
175
1
  7

176
1
177
1
178
1
143
1.0
179
1
  8

270
1
271
1
272
1
145
1.0
146
1.0
273
1
  9

274
1
275
1
276
1
 42
1.0
 72
1
  3

 73
1
 74
1
 75
1
 94
63
  0
MATERIAL
  5
21
102
{ACAD_REACTORS
330
E
102
}
330
E
100
AcDbMaterial
  1
Global
  2

 70
0
 40
1.0
 71
1
 41
1.0
 91
-1023410177
 42
1.0
 72
1
  3

 73
1
 74
1
 75
1
 44
0.5
 73
0
 45
1.0
 46
1.0
 77
1
  4

 78
1
 79
1
170
1
 48
1.0
171
1
  6

172
1
173
1
174
1
140
1.0
141
1.0
175
1
  7

176
1
177
1
178
1
143
1.0
179
1
  8

270
1
271
1
272
1
145
1.0
146
1.0
273
1
  9

274
1
275
1
276
1
 42
1.0
 72
1
  3

 73
1
 74
1
 75
1
 94
63
  0
MLINESTYLE
  5
22
102
{ACAD_REACTORS
330
10
102
}
330
10
100
AcDbMlineStyle
  2
Standard
 70
0
  3

 62
256
 51
90.0
 52
90.0
 71
2
 49
0.5
 62
256
  6
BYLAYER
 49
-0.5
 62
256
  6
BYLAYER
  0
MLEADERSTYLE
  5
2C
102
{ACAD_REACTORS
330
F
102
}
330
F
100
AcDbMLeaderStyle
179
2
170
2
171
1
172
0
 90
2
 40
0.0
 41
0.0
173
1
 91
-1056964608
 92
-2
290
1
 42
2.0
291
1
 43
8.0
  3
Standard
 44
4.0
300

342
29
174
1
175
1
176
0
178
1
 93
-1056964608
 45
4.0
292
0
297
0
 46
4.0
 94
-1056964608
 47
1.0
 49
1.0
140
1.0
294
1
141
0.0
177
0
142
1.0
295
0
296
0
143
3.75
271
0
272
9
273
9
  0
DICTIONARY
  5
2D
330
A
100
AcDbDictionary
280
1
281
1
  3
CREATED_BY_EZDXF
350
2E
  3
WRITTEN_BY_EZDXF
350
60
  0
DICTIONARYVAR
  5
2E
330
2D
100
DictionaryVariables
280
0
  1
1.4.4 @ 2026-06-16T03:29:31.985892+00:00
  0
DICTIONARYVAR
  5
60
330
2D
100
DictionaryVariables
280
0
  1
1.4.4 @ 2026-06-16T03:29:32.025164+00:00
  0
ENDSEC
  0
EOF
